<svg width="24" height="22" viewBox="0 0 24 22" fill="none" xmlns="http://www.w3.org/2000/svg">
<path d="M24.0001 5.24674H22.0084C21.8186 4.08667 21.2732 3.01784 20.4255 2.17013C18.2179 -0.0371797 14.6263 -0.0371797 12.4187 2.17013L0 14.5888H8.72494C9.77644 14.5888 10.8039 14.3841 11.7791 13.9802C12.7542 13.5763 13.6256 12.9944 14.369 12.251L15.9969 10.6231L15.4549 10.0811L15.9969 10.6231C17.1831 9.4369 17.1831 7.50668 15.9969 6.32044C15.4223 5.74588 14.6583 5.42924 13.8455 5.42924C13.0328 5.42924 12.2688 5.74557 11.6942 6.32044L12.5976 7.2238C12.9309 6.89044 13.3741 6.70673 13.8455 6.70673C14.317 6.70673 14.7602 6.89044 15.0935 7.2238C15.7819 7.91213 15.7819 9.03175 15.0935 9.71977L13.4656 11.3476C12.5233 12.2899 11.3073 12.9287 10.0085 13.1851L14.2227 8.97061C14.4721 8.7212 14.4721 8.31666 14.2227 8.06725C13.9733 7.81784 13.5688 7.81784 13.3193 8.06725L8.07555 13.311H6.50972L12.5973 7.2235L11.6939 6.32014L4.70329 13.3113H3.08422L13.3221 3.0735C15.0315 1.3641 17.8128 1.3641 19.5222 3.0735C20.3501 3.90143 20.8063 5.0025 20.8063 6.17353C20.8063 7.34456 20.3504 8.44563 19.5222 9.27356L10.8395 17.9559L13.0918 20.2082H11.5293V21.4857H14.571H17.2513H20.2929V20.2082H18.4573L15.3578 17.1088L14.4545 18.0122L16.6505 20.2082H14.8986L12.6462 17.9559L20.4255 10.1766C21.4116 9.19052 21.9889 7.90422 22.0729 6.52393H24.0004V5.24674H24.0001Z" fill="#14FFCA"/>
<path d="M18.8967 4.94248C18.8967 4.46281 18.5064 4.07227 18.0265 4.07227C17.5468 4.07227 17.1562 4.46251 17.1562 4.94248C17.1562 5.42214 17.5465 5.81269 18.0265 5.81269C18.5064 5.81269 18.8967 5.42214 18.8967 4.94248Z" fill="#14FFCA"/>
</svg>
