<svg width="106" height="106" viewBox="0 0 106 106" fill="none" xmlns="http://www.w3.org/2000/svg">
<path d="M16.4415 38.1383H13.5404C12.6102 38.1383 11.855 38.8935 11.855 39.8237C11.855 40.7539 12.6102 41.5091 13.5404 41.5091H16.4415C17.3717 41.5091 18.1269 40.7539 18.1269 39.8237C18.1269 38.8935 17.3717 38.1383 16.4415 38.1383Z" fill="white"/>
<path d="M16.4415 48.6101H13.5404C12.6102 48.6101 11.855 49.3653 11.855 50.2955C11.855 51.2257 12.6102 51.9809 13.5404 51.9809H16.4415C17.3717 51.9809 18.1269 51.2257 18.1269 50.2955C18.1269 49.3653 17.3717 48.6101 16.4415 48.6101Z" fill="white"/>
<path d="M16.4415 59.0818H13.5404C12.6102 59.0818 11.855 59.837 11.855 60.7672C11.855 61.6974 12.6102 62.4526 13.5404 62.4526H16.4415C17.3717 62.4526 18.1269 61.6974 18.1269 60.7672C18.1269 59.837 17.3717 59.0818 16.4415 59.0818Z" fill="white"/>
<path d="M16.4415 69.5446H13.5404C12.6102 69.5446 11.855 70.2998 11.855 71.23C11.855 72.1602 12.6102 72.9154 13.5404 72.9154H16.4415C17.3717 72.9154 18.1269 72.1602 18.1269 71.23C18.1269 70.2998 17.3717 69.5446 16.4415 69.5446Z" fill="white"/>
<path d="M16.4415 80.0162H13.5404C12.6102 80.0162 11.855 80.7714 11.855 81.7016C11.855 82.6318 12.6102 83.3871 13.5404 83.3871H16.4415C17.3717 83.3871 18.1269 82.6318 18.1269 81.7016C18.1269 80.7714 17.3717 80.0162 16.4415 80.0162Z" fill="white"/>
<path d="M43.0487 77.8976L40.3226 75.1715L43.0487 72.4454C43.279 72.2151 43.4079 71.9112 43.4079 71.5797C43.4079 71.2573 43.279 70.9442 43.0487 70.7139C42.8093 70.4745 42.4961 70.3547 42.183 70.3547C41.8699 70.3547 41.5567 70.4745 41.3173 70.7139L37.7254 74.3058C37.2465 74.7847 37.2465 75.5583 37.7254 76.0373L41.3173 79.6291C41.7778 80.0896 42.5882 80.0896 43.0487 79.6291C43.5184 79.1502 43.5184 78.3766 43.0487 77.8976Z" fill="white"/>
<path d="M60.8239 75.1715C60.8239 74.8492 60.695 74.536 60.4647 74.3058L56.8729 70.7139C56.394 70.235 55.6203 70.235 55.1414 70.7139C54.6625 71.1928 54.6625 71.9665 55.1414 72.4454L57.8675 75.1715L55.1414 77.8976C54.6625 78.3766 54.6625 79.1502 55.1414 79.6291C55.6019 80.0896 56.4124 80.0896 56.8729 79.6291L60.4647 76.0373C60.695 75.807 60.8239 75.5031 60.8239 75.1715Z" fill="white"/>
<path d="M51.0983 69.6269C50.472 69.3966 49.7813 69.719 49.5602 70.3452L46.2262 79.5091C45.996 80.1354 46.3183 80.8261 46.9446 81.0471C47.0828 81.0932 47.2209 81.1208 47.359 81.1208C47.8472 81.1208 48.3077 80.8169 48.4919 80.3288L51.8259 71.1649C52.0469 70.5386 51.7245 69.8479 51.0983 69.6269Z" fill="white"/>
<path d="M12.3151 19.9026C12.2783 19.9855 12.2506 20.0683 12.2322 20.1512C12.2138 20.2433 12.2046 20.3262 12.2046 20.4183C12.2046 20.7683 12.3519 21.1183 12.6006 21.3669C12.9138 21.6801 13.365 21.8274 13.8071 21.7353C13.89 21.7169 13.9729 21.6985 14.0558 21.6617C14.1295 21.634 14.2123 21.588 14.286 21.5419C14.3597 21.4959 14.4242 21.4406 14.4886 21.3762C14.7373 21.1275 14.8755 20.7867 14.8755 20.4275C14.8755 20.3446 14.8663 20.2525 14.8478 20.1604C14.8294 20.0776 14.811 19.9947 14.7742 19.9118C14.7373 19.8289 14.7005 19.746 14.6544 19.6815C14.6084 19.6079 14.5531 19.5342 14.4886 19.4789C14.24 19.2302 13.89 19.0829 13.54 19.0829C13.19 19.0829 12.8401 19.2302 12.5914 19.4789C12.5361 19.525 12.4809 19.5986 12.4348 19.6723C12.3888 19.7368 12.3427 19.8197 12.3151 19.9026Z" fill="white"/>
<path d="M18.4765 19.0737C18.1265 19.0737 17.7765 19.2211 17.5279 19.4698C17.2792 19.7184 17.1318 20.0592 17.1318 20.4184C17.1318 20.7776 17.2792 21.1183 17.5279 21.367C17.7765 21.6157 18.1265 21.763 18.4765 21.763C18.8265 21.763 19.1764 21.6157 19.4251 21.367C19.6738 21.1183 19.8211 20.7776 19.8211 20.4184C19.8211 20.0592 19.6738 19.7184 19.4251 19.4698C19.1764 19.2211 18.8265 19.0737 18.4765 19.0737Z" fill="white"/>
<path d="M22.6583 19.304C22.5846 19.35 22.5201 19.4145 22.4557 19.4698C22.3912 19.5342 22.3359 19.5987 22.2899 19.6724C22.2438 19.7368 22.1978 19.8197 22.1702 19.9026C22.1425 19.9763 22.1149 20.0592 22.0965 20.1513C22.0781 20.2434 22.0688 20.3263 22.0688 20.4092C22.0688 20.7591 22.207 21.1091 22.4557 21.3578C22.5201 21.4223 22.5846 21.4775 22.6583 21.5236C22.7412 21.5788 22.8149 21.6157 22.8885 21.6433C22.9806 21.6801 23.0635 21.7078 23.1372 21.717C23.3122 21.7538 23.4872 21.7538 23.6622 21.717C23.7451 21.6986 23.8279 21.6801 23.9108 21.6433C23.9845 21.6157 24.0582 21.5696 24.1411 21.5236C24.2148 21.4775 24.2792 21.4223 24.3437 21.3578C24.5924 21.1091 24.7397 20.7684 24.7397 20.4092C24.7397 20.3171 24.7305 20.2342 24.7121 20.1421C24.6937 20.05 24.666 19.9671 24.6384 19.8934C24.6016 19.8105 24.5647 19.7276 24.5187 19.6632C24.4726 19.5895 24.4174 19.5158 24.3529 19.4605C24.2884 19.3961 24.224 19.3408 24.1503 19.2948C24.0766 19.2487 24.0029 19.2027 23.92 19.175C23.8279 19.1382 23.7451 19.1106 23.6714 19.1014C23.5885 19.0829 23.4964 19.0737 23.4135 19.0737C23.3214 19.0737 23.2385 19.0829 23.1464 19.1014C23.0727 19.1198 22.9898 19.1382 22.8977 19.175C22.8149 19.2119 22.732 19.2487 22.6583 19.304Z" fill="white"/>
<path d="M62.2884 19.0737H29.4551C28.7183 19.0737 28.1196 19.6724 28.1196 20.4092C28.1196 21.146 28.7183 21.7446 29.4551 21.7446H62.2792C63.016 21.7446 63.6146 21.146 63.6146 20.4092C63.6238 19.6724 63.0252 19.0737 62.2884 19.0737Z" fill="white"/>
<path d="M73.34 19.0737H69.2324C68.4956 19.0737 67.897 19.6724 67.897 20.4092C67.897 21.146 68.4956 21.7446 69.2324 21.7446H73.34C74.0768 21.7446 74.6755 21.146 74.6755 20.4092C74.6847 19.6724 74.0768 19.0737 73.34 19.0737Z" fill="white"/>
<path d="M86.1509 49.2639H69.8402C69.1678 49.2639 68.6152 49.8165 68.6152 50.4888C68.6152 51.1612 69.1678 51.7138 69.8402 51.7138H86.1509C86.8232 51.7138 87.3758 51.1612 87.3758 50.4888C87.3758 49.8165 86.8232 49.2639 86.1509 49.2639Z" fill="white"/>
<path d="M93.5009 42.2832H84.512C83.8397 42.2832 83.2871 42.8358 83.2871 43.5081C83.2871 44.1804 83.8397 44.733 84.512 44.733H93.5009C94.1732 44.733 94.7258 44.1804 94.7258 43.5081C94.7258 42.8358 94.1824 42.2832 93.5009 42.2832Z" fill="white"/>
<path d="M70.4114 42.2832H49.0352C48.2247 42.2832 47.5708 42.8358 47.5708 43.5081C47.5708 44.1804 48.2247 44.733 49.0352 44.733H70.4114C71.2218 44.733 71.8757 44.1804 71.8757 43.5081C71.8757 42.8358 71.2218 42.2832 70.4114 42.2832Z" fill="white"/>
<path d="M62.6013 49.2639H48.7864C48.1141 49.2639 47.5615 49.8165 47.5615 50.4888C47.5615 51.1612 48.1141 51.7138 48.7864 51.7138H62.6013C63.2736 51.7138 63.8262 51.1612 63.8262 50.4888C63.8262 49.8165 63.2736 49.2639 62.6013 49.2639Z" fill="white"/>
<path d="M41.2989 49.2639H38.3978C37.7254 49.2639 37.1729 49.8165 37.1729 50.4888C37.1729 51.1612 37.7254 51.7138 38.3978 51.7138H41.2989C41.9712 51.7138 42.5238 51.1612 42.5238 50.4888C42.5238 49.8165 41.9712 49.2639 41.2989 49.2639Z" fill="white"/>
<path d="M41.2989 42.2832H38.3978C37.7254 42.2832 37.1729 42.8358 37.1729 43.5081C37.1729 44.1804 37.7254 44.733 38.3978 44.733H41.2989C41.9712 44.733 42.5238 44.1804 42.5238 43.5081C42.5238 42.8358 41.9712 42.2832 41.2989 42.2832Z" fill="white"/>
<path d="M26.7933 96.0595H76.5728C80.662 96.0595 83.9868 92.7348 83.9868 88.6456V87.4022H99.0634C101.301 87.4022 103.116 85.5787 103.116 83.3499V67.6378C103.116 65.3998 101.292 63.5854 99.0634 63.5854H83.996V58.9068H99.0726C101.311 58.9068 103.125 57.0832 103.125 54.8544V39.1423C103.125 36.9043 101.301 35.09 99.0726 35.09H95.0203C94.0625 35.09 93.2888 35.8636 93.2888 36.8214C93.2888 37.7792 94.0625 38.5529 95.0203 38.5529H99.0726C99.3858 38.5529 99.6713 38.8292 99.6713 39.1515V54.8544C99.6713 55.1675 99.395 55.4531 99.0726 55.4531H31.7851C31.4719 55.4531 31.1864 55.1768 31.1864 54.8544V39.1423C31.1864 38.8292 31.4627 38.5437 31.7851 38.5437H86.3906C87.3484 38.5437 88.1221 37.77 88.1221 36.8122C88.1221 35.8544 87.3484 35.0807 86.3906 35.0807H83.996V18.42C83.996 14.3308 80.6712 11.006 76.582 11.006C47.1103 11.006 30.7996 11.006 21.7555 11.006H19.7661C10.8049 10.9968 10.4549 10.9968 10.2707 11.0153C7.11172 11.2547 4.45927 13.4559 3.64879 16.4859C3.36329 17.5451 3.36329 17.8582 3.38171 25.9814V26.5708C3.39092 29.0851 3.39092 32.2901 3.39092 36.4346C3.39092 37.3924 4.16455 38.1661 5.12238 38.1661C6.08021 38.1661 6.85384 37.3924 6.85384 36.4346V29.8311H80.5331V35.09H31.7851C29.5471 35.09 27.7327 36.9135 27.7327 39.1423V54.8452C27.7327 57.0832 29.5563 58.8976 31.7851 58.8976H80.5331V63.5762H31.7851C29.5471 63.5762 27.7327 65.3998 27.7327 67.6286V83.3314C27.7327 85.5695 29.5563 87.3838 31.7851 87.3838H80.5331V88.6271C80.5331 90.8099 78.7556 92.5874 76.5728 92.5874H26.7933C25.8355 92.5874 25.0618 93.361 25.0618 94.3189C25.071 95.2859 25.8447 96.0595 26.7933 96.0595ZM6.85384 26.3682V25.9077C6.85384 24.5999 6.83542 23.4671 6.82621 22.5C6.77095 17.5819 6.79858 16.7254 8.14323 15.5005C8.87081 14.8282 9.81943 14.4598 10.8049 14.4598H76.5728C78.7556 14.4598 80.5331 16.2373 80.5331 18.42V26.3774H6.85384V26.3682ZM31.7851 83.9393C31.4719 83.9393 31.1864 83.663 31.1864 83.3407V67.6378C31.1864 67.3246 31.4627 67.0391 31.7851 67.0391H99.0726C99.3858 67.0391 99.6713 67.3154 99.6713 67.6378V83.3407C99.6713 83.6538 99.395 83.9393 99.0726 83.9393H31.7851Z" fill="white"/>
<path d="M5.12258 43.333C4.16475 43.333 3.39111 44.1066 3.39111 45.0645V88.6457C3.39111 92.7349 6.71589 96.0597 10.8051 96.0597H19.0848C20.0426 96.0597 20.8163 95.2861 20.8163 94.3283C20.8163 93.3704 20.0426 92.5968 19.0848 92.5968H10.8051C8.62234 92.5968 6.84483 90.8193 6.84483 88.6365V45.0645C6.85404 44.1066 6.0712 43.333 5.12258 43.333Z" fill="white"/>
<path d="M78.9583 43.2224C78.9399 43.1303 78.9123 43.0382 78.8754 42.9461C78.8386 42.8633 78.7925 42.7712 78.7373 42.6975C78.682 42.6146 78.6268 42.5409 78.5531 42.4764C78.4886 42.412 78.4149 42.3475 78.332 42.2922C78.2492 42.237 78.1663 42.1909 78.0834 42.1541C77.9913 42.1173 77.8992 42.0896 77.8071 42.0712C77.6229 42.0344 77.4295 42.0344 77.2361 42.0712C77.144 42.0896 77.0519 42.1173 76.969 42.1541C76.8861 42.1909 76.794 42.237 76.7203 42.2922C76.6374 42.3475 76.5637 42.4028 76.4993 42.4764C76.4348 42.5409 76.3703 42.6146 76.3151 42.6975C76.2598 42.7804 76.2138 42.8633 76.1769 42.9461C76.1401 43.0382 76.1125 43.1303 76.094 43.2224C76.0756 43.3145 76.0664 43.4066 76.0664 43.508C76.0664 43.6001 76.0756 43.7014 76.094 43.7935C76.1125 43.8856 76.1401 43.9777 76.1769 44.0605C76.2138 44.1434 76.2598 44.2355 76.3151 44.3092C76.3703 44.3921 76.4256 44.4658 76.4993 44.5303C76.5637 44.5947 76.6374 44.6592 76.7203 44.7145C76.8032 44.7697 76.8861 44.8158 76.969 44.8526C77.0519 44.8894 77.144 44.9171 77.2361 44.9355C77.3282 44.9539 77.4295 44.9631 77.5216 44.9631C77.6137 44.9631 77.715 44.9539 77.8071 44.9355C77.8992 44.9171 77.9913 44.8894 78.0834 44.8526C78.1663 44.8158 78.2584 44.7697 78.332 44.7145C78.4149 44.6592 78.4886 44.6039 78.5531 44.5303C78.6175 44.4658 78.682 44.3921 78.7373 44.3092C78.7925 44.2355 78.8386 44.1434 78.8754 44.0605C78.9123 43.9777 78.9399 43.8856 78.9583 43.7935C78.9767 43.7014 78.9859 43.6001 78.9859 43.508C78.9859 43.4159 78.9767 43.3145 78.9583 43.2224Z" fill="white"/>
<path d="M91.3732 51.2899C91.4284 51.3728 91.4837 51.4465 91.5574 51.511C91.6218 51.5754 91.6955 51.6399 91.7784 51.6952C91.8613 51.7504 91.9442 51.7965 92.0271 51.8333C92.11 51.8702 92.2021 51.8978 92.2942 51.9162C92.3863 51.9346 92.4876 51.9438 92.5797 51.9438C92.6718 51.9438 92.7731 51.9346 92.8652 51.9162C92.9573 51.8978 93.0494 51.8702 93.1415 51.8333C93.2244 51.7965 93.3165 51.7504 93.3901 51.6952C93.473 51.6399 93.5467 51.5847 93.6112 51.511C93.6757 51.4465 93.7401 51.3728 93.7954 51.2899C93.8506 51.2163 93.8967 51.1242 93.9335 51.0413C93.9704 50.9584 93.998 50.8663 94.0164 50.7742C94.0348 50.6821 94.044 50.5808 94.044 50.4887C94.044 50.3966 94.0348 50.2953 94.0164 50.2032C93.998 50.1111 93.9704 50.019 93.9335 49.9269C93.8967 49.844 93.8506 49.7519 93.7954 49.6782C93.7401 49.5953 93.6849 49.5216 93.6112 49.4572C93.5467 49.3927 93.473 49.3282 93.3901 49.273C93.3073 49.2177 93.2244 49.1717 93.1415 49.1348C93.0494 49.098 92.9573 49.0703 92.8652 49.0519C92.681 49.0151 92.4876 49.0151 92.2942 49.0519C92.2021 49.0703 92.11 49.098 92.0271 49.1348C91.9442 49.1717 91.8521 49.2177 91.7784 49.273C91.6955 49.3282 91.6218 49.3835 91.5574 49.4572C91.4929 49.5216 91.4284 49.5953 91.3732 49.6782C91.3179 49.7611 91.2719 49.844 91.235 49.9269C91.1982 50.019 91.1706 50.1111 91.1521 50.2032C91.1337 50.2953 91.1245 50.3874 91.1245 50.4887C91.1245 50.5808 91.1337 50.6821 91.1521 50.7742C91.1706 50.8663 91.1982 50.9584 91.235 51.0413C91.2811 51.1334 91.3179 51.2163 91.3732 51.2899Z" fill="white"/>
</svg>
