<svg width="64" height="64" viewBox="0 0 64 64" fill="none" xmlns="http://www.w3.org/2000/svg">
<rect width="64" height="64" rx="32" fill="#1877F2"/>
<path d="M60 32C60 16.536 47.464 4 32 4C16.536 4 4 16.536 4 32C4 45.9754 14.2391 57.5593 27.625 59.6598V40.0937H20.5156V32H27.625V25.8312C27.625 18.8137 31.8053 14.9375 38.201 14.9375C41.2646 14.9375 44.4688 15.4844 44.4688 15.4844V22.375H40.9381C37.46 22.375 36.375 24.5335 36.375 26.7478V32H44.1406L42.8992 40.0937H36.375V59.6598C49.7609 57.5593 60 45.9754 60 32Z" fill="#1877F2"/>
<path d="M42.8992 40.0938L44.1406 32H36.375V26.7478C36.375 24.5335 37.46 22.375 40.9381 22.375H44.4688V15.4844C44.4688 15.4844 41.2646 14.9375 38.201 14.9375C31.8053 14.9375 27.625 18.8138 27.625 25.8313V32H20.5156V40.0938H27.625V59.6598C29.0507 59.8835 30.5114 60 32 60C33.4886 60 34.9493 59.8835 36.375 59.6598V40.0938H42.8992Z" fill="white"/>
</svg>
