<svg width="33" height="32" viewBox="0 0 33 32" fill="none" xmlns="http://www.w3.org/2000/svg">
<g clip-path="url(#clip0_475_7289)">
<path fill-rule="evenodd" clip-rule="evenodd" d="M2.2415 8.81738C1.13492 10.9685 0.5 13.4218 0.5 15.9996C0.5 18.5774 1.13492 21.0307 2.2415 23.1818L7.70181 19.0396C7.35714 18.0796 7.17574 17.0485 7.17574 15.9996C7.17574 14.9507 7.35714 13.9196 7.68367 12.9596L2.2415 8.81738Z" fill="#F9BB00"/>
<path fill-rule="evenodd" clip-rule="evenodd" d="M32.2099 13.084H16.8267V19.2707H25.6067C25.2258 21.2618 24.0829 22.9684 22.3414 24.1062L27.6203 28.124C30.7042 25.3329 32.482 21.244 32.482 16.3729C32.5001 15.2351 32.3913 14.1329 32.2099 13.084Z" fill="#3E82F1"/>
<path fill-rule="evenodd" clip-rule="evenodd" d="M16.8262 6.36444C19.2208 6.36444 21.3795 7.16444 23.0666 8.76444L27.7469 4.17778C24.917 1.58222 21.2344 0 16.8262 0C10.4408 0 4.92602 3.59111 2.24121 8.81778L7.70153 12.96C8.97137 9.17333 12.5813 6.36444 16.8262 6.36444Z" fill="#E74235"/>
<path fill-rule="evenodd" clip-rule="evenodd" d="M22.3592 24.1067C20.8898 25.0667 19.0213 25.6356 16.8263 25.6356C12.5814 25.6356 8.97144 22.8267 7.68346 19.04L2.22314 23.1823C4.92609 28.4089 10.4408 32 16.8263 32C21.2345 32 24.9352 30.56 27.6381 28.1245L22.3592 24.1067Z" fill="#32A753"/>
</g>
<defs>
<clipPath id="clip0_475_7289">
<rect width="32" height="32" fill="white" transform="translate(0.5)"/>
</clipPath>
</defs>
</svg>
