<svg width="25" height="24" viewBox="0 0 25 24" fill="none" xmlns="http://www.w3.org/2000/svg">
<g clip-path="url(#clip0_313_6706)">
<path fill-rule="evenodd" clip-rule="evenodd" d="M1.80612 6.61328C0.97619 8.22661 0.5 10.0666 0.5 11.9999C0.5 13.9333 0.97619 15.7733 1.80612 17.3866L5.90136 14.2799C5.64286 13.5599 5.5068 12.7866 5.5068 11.9999C5.5068 11.2133 5.64286 10.4399 5.88775 9.71995L1.80612 6.61328Z" fill="#F9BB00"/>
<path fill-rule="evenodd" clip-rule="evenodd" d="M24.2825 9.81348H12.7451V14.4535H19.3302C19.0444 15.9468 18.1873 17.2268 16.8812 18.0801L20.8404 21.0935C23.1533 19.0001 24.4866 15.9335 24.4866 12.2801C24.5002 11.4268 24.4186 10.6001 24.2825 9.81348Z" fill="#3E82F1"/>
<path fill-rule="evenodd" clip-rule="evenodd" d="M12.7444 4.77333C14.5404 4.77333 16.1594 5.37333 17.4247 6.57333L20.9349 3.13333C18.8125 1.18667 16.0506 0 12.7444 0C7.95532 0 3.81927 2.69333 1.80566 6.61333L5.9009 9.72C6.85328 6.88 9.56077 4.77333 12.7444 4.77333Z" fill="#E74235"/>
<path fill-rule="evenodd" clip-rule="evenodd" d="M16.895 18.0803C15.793 18.8003 14.3916 19.2269 12.7454 19.2269C9.56168 19.2269 6.85419 17.1203 5.88821 14.2803L1.79297 17.3869C3.82018 21.3069 7.95623 24.0003 12.7454 24.0003C16.0515 24.0003 18.827 22.9203 20.8542 21.0936L16.895 18.0803Z" fill="#32A753"/>
</g>
<defs>
<clipPath id="clip0_313_6706">
<rect width="24" height="24" fill="white" transform="translate(0.5)"/>
</clipPath>
</defs>
</svg>
