<svg width="227" height="330" viewBox="0 0 227 330" fill="none" xmlns="http://www.w3.org/2000/svg">
<path d="M59.6081 74.9999H45.1521L45.1521 44.0079L20.0881 44.0079L20.0881 74.9999H5.63212L5.63212 0.951885L20.0881 0.951885L20.0881 31.2159L45.1521 31.2159L45.1521 0.951885L59.6081 0.951885L59.6081 74.9999Z" fill="white"/>
<path d="M129.035 37.9759C129.035 46.0186 128.723 51.5999 128.099 54.7199C127.198 59.8506 125.049 64.1146 121.651 67.5119C116.243 72.9199 109.587 75.6239 101.683 75.6239C93.7101 75.6239 87.0194 72.9199 81.6114 67.5119C78.2834 64.1839 76.1341 59.9199 75.1634 54.7199C74.6088 51.6692 74.3314 46.0879 74.3314 37.9759C74.3314 29.8639 74.6088 24.2826 75.1634 21.2319C76.1341 16.0319 78.2834 11.7679 81.6114 8.43988C87.0194 3.03188 93.7101 0.327881 101.683 0.327881C109.587 0.327881 116.243 3.03188 121.651 8.43988C125.049 11.8372 127.198 16.1012 128.099 21.2319C128.723 24.3519 129.035 29.9332 129.035 37.9759ZM114.579 37.9759C114.579 32.2905 114.51 28.6852 114.371 27.1599C113.955 22.5839 112.811 19.2559 110.939 17.1759C108.582 14.5412 105.497 13.2239 101.683 13.2239C97.8008 13.2239 94.6808 14.5412 92.3234 17.1759C90.5208 19.2559 89.4114 22.5839 88.9954 27.1599C88.8568 28.4079 88.7874 32.0132 88.7874 37.9759C88.7874 43.9385 88.8568 47.5439 88.9954 48.7919C89.4114 53.3679 90.5208 56.6959 92.3234 58.7759C94.6808 61.4106 97.8008 62.7279 101.683 62.7279C105.982 62.7279 109.345 61.0639 111.771 57.7359C113.643 55.1706 114.579 48.5839 114.579 37.9759Z" fill="white"/>
<path d="M226.749 0.951885L206.885 74.9999H194.821L181.197 30.0719L167.573 74.9999H155.509L135.749 0.951885L150.829 0.951885L162.269 47.6479L175.789 0.951885L186.605 0.951885L200.125 47.6479L211.669 0.951885L226.749 0.951885Z" fill="white"/>
<path d="M53.2641 140.848H33.9201L33.9201 202H19.4641L19.4641 140.848H0.120117L0.120117 127.952L53.2641 127.952V140.848Z" fill="white"/>
<path d="M117.254 164.976C117.254 173.019 116.942 178.6 116.318 181.72C115.417 186.851 113.268 191.115 109.87 194.512C104.462 199.92 97.8062 202.624 89.9022 202.624C81.9288 202.624 75.2382 199.92 69.8302 194.512C66.5022 191.184 64.3529 186.92 63.3822 181.72C62.8275 178.669 62.5502 173.088 62.5502 164.976C62.5502 156.864 62.8275 151.283 63.3822 148.232C64.3529 143.032 66.5022 138.768 69.8302 135.44C75.2382 130.032 81.9288 127.328 89.9022 127.328C97.8062 127.328 104.462 130.032 109.87 135.44C113.268 138.837 115.417 143.101 116.318 148.232C116.942 151.352 117.254 156.933 117.254 164.976ZM102.798 164.976C102.798 159.291 102.729 155.685 102.59 154.16C102.174 149.584 101.03 146.256 99.1582 144.176C96.8008 141.541 93.7155 140.224 89.9022 140.224C86.0195 140.224 82.8995 141.541 80.5422 144.176C78.7395 146.256 77.6302 149.584 77.2142 154.16C77.0755 155.408 77.0062 159.013 77.0062 164.976C77.0062 170.939 77.0755 174.544 77.2142 175.792C77.6302 180.368 78.7395 183.696 80.5422 185.776C82.8995 188.411 86.0195 189.728 89.9022 189.728C94.2009 189.728 97.5635 188.064 99.9902 184.736C101.862 182.171 102.798 175.584 102.798 164.976Z" fill="white"/>
<path d="M58.9841 303.624C58.9841 311.32 56.3841 317.595 51.1841 322.448C45.9841 327.232 39.5015 329.624 31.7361 329.624C23.9708 329.624 17.4881 327.232 12.2881 322.448C7.08812 317.595 4.48812 311.32 4.48812 303.624L4.48812 254.952H18.9441L18.9441 303.104C18.9441 307.333 20.0881 310.661 22.3761 313.088C24.6641 315.515 27.7841 316.728 31.7361 316.728C35.6881 316.728 38.8081 315.515 41.0961 313.088C43.4535 310.661 44.6321 307.333 44.6321 303.104L44.6321 254.952H58.9841L58.9841 303.624Z" fill="white"/>
<path d="M122.941 307.16C122.941 314.163 120.341 319.675 115.141 323.696C110.01 327.648 103.458 329.624 95.4849 329.624C83.9062 329.624 74.8929 326.365 68.4449 319.848L77.8049 310.488C81.9649 314.648 87.9275 316.728 95.6929 316.728C104.429 316.728 108.797 313.677 108.797 307.576C108.797 304.803 108.069 302.757 106.613 301.44C105.157 300.053 102.938 299.152 99.9569 298.736L91.0129 297.488C77.9089 295.685 71.3569 288.787 71.3569 276.792C71.3569 270.067 73.6795 264.659 78.3249 260.568C82.9702 256.408 89.2449 254.328 97.1489 254.328C107.133 254.328 115.106 257.205 121.069 262.96L111.917 272.008C108.381 268.611 103.32 266.912 96.7329 266.912C93.0582 266.912 90.2155 267.813 88.2049 269.616C86.2635 271.349 85.2929 273.568 85.2929 276.272C85.2929 278.421 86.0555 280.224 87.5809 281.68C89.1755 283.136 91.4289 284.072 94.3409 284.488L103.077 285.736C109.386 286.637 114.101 288.544 117.221 291.456C121.034 295.061 122.941 300.296 122.941 307.16Z" fill="white"/>
<path d="M185.322 329L136.546 329L136.546 254.952H185.322L185.322 267.848L151.002 267.848V285.216L180.226 285.216V298.112L151.002 298.112V316.104L185.322 316.104V329Z" fill="white"/>
</svg>
