<svg width="88" height="88" viewBox="0 0 88 88" fill="none" xmlns="http://www.w3.org/2000/svg">
<path d="M84.937 57.8917H52.3299L52.2685 57.6846C51.187 54.0565 47.7813 51.5176 43.9998 51.5176C40.2183 51.5176 36.8126 54.0488 35.7311 57.6846L35.6697 57.8917H3.06259C1.8123 57.8917 0.799805 58.9042 0.799805 60.1545C0.799805 61.4048 1.8123 62.4173 3.06259 62.4173H35.6697L35.7311 62.6244C36.8126 66.2525 40.2183 68.7914 43.9998 68.7914C47.7813 68.7914 51.187 66.2525 52.2685 62.6244L52.3299 62.4173H84.937C86.1796 62.4173 87.1998 61.4048 87.1998 60.1545C87.1998 58.9042 86.1796 57.8917 84.937 57.8917ZM43.9998 64.2582C41.737 64.2582 39.8884 62.4173 39.8884 60.1468C39.8884 57.8841 41.7293 56.0355 43.9998 56.0355C46.2703 56.0355 48.1112 57.8764 48.1112 60.1468C48.1112 62.4173 46.2626 64.2582 43.9998 64.2582Z" fill="white"/>
<path d="M84.937 76.3087H73.2242L73.1629 76.1016C72.0813 72.4735 68.6757 69.9346 64.8941 69.9346C61.1126 69.9346 57.7069 72.4735 56.6254 76.1016L56.564 76.3087H3.06259C1.81998 76.3087 0.799805 77.3212 0.799805 78.5715C0.799805 79.8218 1.8123 80.8343 3.06259 80.8343H56.564L56.6254 81.0414C57.7069 84.6695 61.1126 87.2085 64.8941 87.2085C68.6757 87.2085 72.0813 84.6695 73.1629 81.0414L73.2242 80.8343H84.937C86.1796 80.8343 87.1998 79.8218 87.1998 78.5715C87.1998 77.3212 86.1796 76.3087 84.937 76.3087ZM64.8941 82.6752C62.6237 82.6752 60.7827 80.8343 60.7827 78.5638C60.7827 76.3011 62.6237 74.4525 64.8941 74.4525C67.1569 74.4525 69.0055 76.2934 69.0055 78.5638C69.0055 80.8343 67.1569 82.6752 64.8941 82.6752Z" fill="white"/>
<path d="M52.8822 47.237C55.7356 48.5333 59.1106 48.0424 61.4578 45.9867C64.8788 42.9952 67.456 39.1677 68.9134 34.9029L68.9825 34.7111H84.937C86.1796 34.7111 87.1998 33.6986 87.1998 32.4483V3.06283C87.1998 1.82022 86.1873 0.800049 84.937 0.800049H8.93816C4.45094 0.800049 0.799805 4.45118 0.799805 8.9384C0.799805 12.6969 3.45378 16.0259 7.12026 16.8697L7.46543 16.9464L7.31202 17.2685C6.80577 18.35 6.55265 19.5006 6.55265 20.6895C6.55265 25.1768 10.2038 28.8279 14.691 28.8279H18.8484L18.8714 29.0887C19.5157 35.6469 22.6069 41.6529 27.5774 45.9867C29.9705 48.0731 33.2535 48.5563 36.1606 47.237C39.083 45.91 40.9009 43.0949 40.9009 39.8887V39.6662C40.9009 37.3881 39.9038 35.1867 38.1703 33.6219C36.0225 31.689 34.8873 28.9276 35.0407 26.0435C35.3015 21.2495 39.2671 17.3222 44.0612 17.0921C44.2146 17.0844 44.368 17.0844 44.5214 17.0844C46.9683 17.0844 49.2771 18.0049 51.0643 19.7077C52.9666 21.5179 54.0097 23.9571 54.0097 26.5728C54.0097 29.2804 52.8438 31.8654 50.8112 33.6679C49.1083 35.179 48.1342 37.3651 48.1342 39.6662V39.8887C48.1418 43.0873 49.9597 45.91 52.8822 47.237ZM20.4208 17.4679C19.6154 19.585 19.1015 21.8018 18.8791 24.0492L18.8561 24.31H14.6987C13.7322 24.31 12.8271 23.9341 12.1444 23.2515C11.4617 22.5688 11.0859 21.656 11.0859 20.6972C11.0859 18.7029 12.712 17.0768 14.7063 17.0768H20.5742L20.4208 17.4679ZM22.9061 12.5589H8.93816C6.94384 12.5589 5.32537 10.9327 5.32537 8.9384C5.32537 6.94408 6.95151 5.31795 8.93816 5.31795H29.9399L29.2342 5.83954C26.772 7.65743 24.6779 9.8742 22.9981 12.4285L22.9061 12.5589ZM52.6597 39.6586C52.6597 38.6461 53.0816 37.6949 53.818 37.0429C56.8171 34.3813 58.5353 30.5614 58.5353 26.5651C58.5353 22.6992 56.9935 19.1018 54.1862 16.4248C51.4018 13.7708 47.72 12.3901 43.8464 12.5665C40.3947 12.7276 37.1347 14.1697 34.6572 16.6242C32.1796 19.0787 30.7146 22.331 30.5305 25.7827C30.3004 30.0322 31.9802 34.1128 35.1481 36.9662C35.9382 37.6796 36.3907 38.6537 36.3907 39.6586V39.881C36.3907 41.3154 35.6083 42.5196 34.2967 43.1179C33.008 43.7009 31.612 43.5015 30.5612 42.581C25.9359 38.5387 23.2819 32.7015 23.2819 26.5651C23.2819 14.8523 32.8163 5.31795 44.5291 5.31795H82.6819V30.1856H67.2873C66.2595 30.1856 65.3543 30.8836 65.1012 31.8807C64.035 36.0381 61.7416 39.7353 58.4893 42.581C57.8373 43.1563 57.0472 43.4478 56.2342 43.4478C55.7433 43.4478 55.237 43.3404 54.7538 43.1179C53.4421 42.5273 52.6597 41.3154 52.6597 39.881V39.6586Z" fill="white"/>
</svg>
