<svg width="96" height="96" viewBox="0 0 96 96" fill="none" xmlns="http://www.w3.org/2000/svg">
<path d="M48.4023 23.9829C35.9261 23.9829 25.769 34.1319 25.769 46.6162C25.769 59.1004 35.918 69.2494 48.4023 69.2494C60.8865 69.2494 71.0356 59.1004 71.0356 46.6162C71.0356 34.1319 60.8785 23.9829 48.4023 23.9829ZM48.4023 64.2719C38.6654 64.2719 30.7466 56.3531 30.7466 46.6162C30.7466 36.8793 38.6654 28.9604 48.4023 28.9604C58.1392 28.9604 66.058 36.8793 66.058 46.6162C66.058 56.3531 58.1392 64.2719 48.4023 64.2719Z" fill="white"/>
<path d="M57.0401 38.9402C56.3776 38.9402 55.7554 39.1988 55.2786 39.6674L44.5317 50.4144L41.5096 47.3923C41.0248 46.9075 40.3864 46.6651 39.748 46.6651C39.1097 46.6651 38.4713 46.9075 37.9865 47.3923C37.0169 48.362 37.0169 49.9376 37.9865 50.9073L42.7701 55.6909C43.2388 56.1596 43.861 56.4181 44.5317 56.4181C45.1943 56.4181 45.8164 56.1596 46.2932 55.6909L58.8017 43.1824C59.7713 42.2128 59.7713 40.6371 58.8017 39.6674C58.333 39.1988 57.7108 38.9402 57.0401 38.9402Z" fill="white"/>
<path d="M87.1169 27.0615V26.9968C87.0765 26.1565 87.0522 25.2191 87.0361 24.1444C86.9633 19.1992 83.0282 15.1105 78.083 14.8277C67.4976 14.2378 59.3041 10.7875 52.3064 3.95955L52.2499 3.90298C51.1509 2.90101 49.7773 2.40002 48.4036 2.40002C47.0299 2.40002 45.6482 2.90101 44.5573 3.91106L44.5007 3.95955C37.5193 10.7633 29.358 14.2136 18.8212 14.8196C13.9244 15.1024 9.8519 19.2396 9.77918 24.1444C9.76302 25.1626 9.73877 26.0918 9.69837 26.9887V27.1504C9.4802 37.8811 9.22971 51.23 13.682 63.3264C16.1304 69.9685 19.8393 75.746 24.7037 80.4892C28.1137 83.8183 32.1862 86.7111 36.8486 89.1676C37.6647 89.5958 38.6667 89.515 39.4182 88.9817C40.9211 87.907 40.7595 85.6364 39.1273 84.7799C28.9379 79.4064 22.0937 71.7704 18.3525 61.6053C14.2153 50.3816 14.4497 38.0912 14.6597 27.2473V27.1908C14.7002 26.2696 14.7325 25.2999 14.7486 24.2252C14.781 21.8577 16.6475 19.9265 19.0151 19.7891C24.9461 19.4578 30.1661 18.3104 34.9497 16.2822C39.7333 14.254 43.9836 11.4016 47.9349 7.55533C48.2258 7.31292 48.5975 7.31292 48.8722 7.54725C52.8397 11.4016 57.082 14.254 61.8656 16.2822C66.6573 18.3104 71.8691 19.4578 77.8002 19.7891C80.1677 19.9184 82.0262 21.8496 82.0666 24.2172C82.0828 25.2838 82.107 26.2534 82.1555 27.1827C82.3575 38.0347 82.5918 50.3331 78.4385 61.5891C73.9943 73.6451 65.2109 82.1538 51.6358 87.5353C49.7045 88.303 47.6602 89.1757 45.9148 89.8706C44.7432 90.3392 44.5331 93.0704 47.1592 93.4906C47.9915 93.6199 48.8318 93.6522 49.6561 93.4906C49.9469 93.434 50.2378 93.3532 50.5207 93.2563C59.2879 90.1857 66.5441 85.895 72.0792 80.4811C76.9436 75.7298 80.6525 69.9523 83.1009 63.3102C87.5775 51.1734 87.3189 37.8003 87.1169 27.0615Z" fill="white"/>
</svg>
