<svg width="106" height="106" viewBox="0 0 106 106" fill="none" xmlns="http://www.w3.org/2000/svg">
<path d="M99.4642 33.1766C100.296 33.1766 101.008 32.5943 101.184 31.7808L102.626 24.2379C102.663 24.0437 102.727 23.1656 102.293 22.6294C102.015 22.2874 101.553 22.1118 100.934 22.1118H99.5659V4.87208C99.5659 3.91072 98.7802 3.125 97.8188 3.125H64.6243C63.6629 3.125 62.8679 3.91072 62.8679 4.87208V22.1118H61.4999C60.973 22.1118 60.483 22.3521 60.1595 22.7589C59.8175 23.1748 59.6881 23.7017 59.799 24.2194L61.2503 31.7993C61.4259 32.5943 62.1377 33.1766 62.9604 33.1766H99.4642ZM66.3713 6.62841H96.0625V22.1118H84.5354C83.7405 22.1118 83.0379 22.6479 82.8438 23.4244L82.7514 23.7757H79.6824L79.59 23.4244C79.3866 22.6479 78.6934 22.1118 77.8984 22.1118H66.3713V6.62841ZM76.1143 25.6152L76.2068 25.9665C76.4101 26.7429 77.1034 27.2791 77.8984 27.2791H84.5354C85.3304 27.2791 86.0329 26.7429 86.2271 25.9665L86.3195 25.6152H98.7432L98.0591 29.6732H64.3654L63.6814 25.6152H76.1143Z" fill="white"/>
<path d="M39.8229 91.1724V74.5705C39.8137 71.7881 37.5397 69.5141 34.7573 69.5049H8.19061C5.40822 69.5141 3.13424 71.7881 3.125 74.5797V91.1724C3.13424 93.9548 5.40822 96.2288 8.19985 96.238H13.7831H14.3747L13.2932 100.694C13.1545 101.22 13.2747 101.784 13.6075 102.209C13.9403 102.635 14.4394 102.875 14.9756 102.875H27.9631C28.527 102.847 29.0262 102.616 29.3497 102.209C29.6917 101.784 29.8026 101.23 29.6732 100.712L28.5825 96.238H34.7573C37.5397 96.238 39.8137 93.9548 39.8229 91.1724ZM6.62841 74.5797C6.62841 73.7201 7.33094 73.0083 8.19985 73.0083H34.7481C35.617 73.0083 36.3195 73.7108 36.3195 74.5797V86.1068H6.62841V74.5797ZM17.2126 99.3809L17.9798 96.2472H24.9681L25.7354 99.3809H17.2126ZM8.19985 92.7346C7.34018 92.7346 6.62841 92.0321 6.62841 91.1631V88.6673H36.3195V91.1631C36.3195 92.0228 35.617 92.7346 34.7481 92.7346H8.19985Z" fill="white"/>
<path d="M79.4604 71.2614V97.8096C79.4697 100.592 81.7437 102.866 84.5353 102.875H97.8094C100.592 102.866 102.866 100.592 102.875 97.8004V71.2521C102.866 68.4697 100.592 66.1958 97.8002 66.1865H84.5353C81.7437 66.1958 79.4697 68.4697 79.4604 71.2614ZM95.8405 69.6899V70.1521C95.8405 70.642 95.5354 71.2336 95.0178 71.7421C94.3892 72.3614 93.6035 72.7127 92.8547 72.7127C92.8455 72.7127 92.8362 72.7127 92.8178 72.7127H89.5085C88.0757 72.7127 86.7168 71.1967 86.5782 70.2076L86.5135 69.6807H95.8405V69.6899ZM89.5177 74.6723H92.8362C95.3875 74.6631 97.5413 72.7496 97.8649 70.2261L97.9481 69.5698L98.5397 69.8748C99.0573 70.1429 99.3809 70.679 99.3809 71.2614V97.8096C99.3809 98.6693 98.6783 99.3811 97.8094 99.3811H84.5353C83.6756 99.3811 82.9639 98.6785 82.9639 97.8096V71.2614C82.9639 70.679 83.2874 70.1429 83.805 69.8748L84.3966 69.5698L84.4798 70.2261C84.8034 72.7496 86.9664 74.6631 89.5177 74.6723Z" fill="white"/>
<path d="M3.125 8.19985V34.7481C3.13424 37.5305 5.40822 39.8045 8.19985 39.8137H28.111C30.8934 39.8045 33.1674 37.5305 33.1766 34.7388V8.19061C33.1674 5.40822 30.8934 3.13424 28.111 3.125H8.19061C5.40822 3.13424 3.13424 5.40822 3.125 8.19985ZM6.62841 8.19985C6.62841 7.34018 7.33094 6.62841 8.19985 6.62841H28.111C28.9707 6.62841 29.6825 7.33094 29.6825 8.19985V34.7481C29.6825 35.6078 28.9799 36.3195 28.111 36.3195H8.19985C7.34018 36.3195 6.62841 35.617 6.62841 34.7481V8.19985Z" fill="white"/>
<path d="M18.1548 29.6735C17.1844 29.6735 16.3989 30.459 16.3989 31.4293C16.3989 32.3904 17.1844 33.176 18.1456 33.176C19.1159 33.176 19.9014 32.3904 19.9014 31.4293C19.9014 30.4682 19.1159 29.6735 18.1548 29.6735Z" fill="white"/>
<path d="M71.3537 56.1564V49.8522C71.3537 48.974 70.6881 48.216 69.81 48.1051L65.983 47.6244L68.3587 44.5832C68.9041 43.8807 68.8301 42.8916 68.2016 42.2815L63.7368 37.8167C63.1175 37.1881 62.1191 37.1234 61.4166 37.6596L58.3754 40.0352L57.8947 36.2083C57.7838 35.3394 57.0258 34.6738 56.1384 34.6738H49.8341C48.9559 34.6738 48.1979 35.3394 48.087 36.2175L47.6063 40.0352L44.5651 37.6596C43.8718 37.1234 42.8735 37.1881 42.2634 37.8167L37.7987 42.2815C37.1608 42.9008 37.0961 43.8992 37.6415 44.6017L40.0172 47.6429L36.1902 48.1236C35.3213 48.2345 34.6558 48.9925 34.6558 49.8799V56.1842C34.6558 57.0623 35.3213 57.8203 36.1995 57.9313L40.0172 58.4119L37.6415 61.4532C37.0961 62.1557 37.1701 63.1448 37.7987 63.7549L42.2634 68.2196C42.8828 68.8482 43.8811 68.9129 44.5836 68.3768L47.6248 65.9826L48.1055 69.8096C48.2164 70.6785 48.9744 71.344 49.8618 71.344H56.1661C57.0443 71.344 57.8023 70.6785 57.9132 69.8003L58.3846 65.9826L61.4258 68.3583C62.1191 68.8944 63.1175 68.8205 63.7276 68.2011L68.1923 63.7364C68.8301 63.117 68.8948 62.1187 68.3495 61.4162L65.983 58.3842L69.81 57.9035C70.6881 57.7926 71.3445 57.0346 71.3537 56.1564ZM68.4142 54.659L64.4301 55.1674C63.7368 55.2506 63.136 55.7312 62.9233 56.3783C62.7662 56.8035 62.5906 57.2195 62.4057 57.5985C62.0914 58.2363 62.1653 58.9943 62.5998 59.5397L65.0771 62.7288L62.72 65.086L59.5494 62.6179C58.9947 62.1742 58.246 62.091 57.6174 62.4053C57.2107 62.5994 56.7947 62.775 56.388 62.9229C55.7224 63.154 55.251 63.7456 55.1678 64.4297L54.6594 68.423H51.3408L50.8324 64.4389C50.7492 63.7456 50.2778 63.154 49.6215 62.9229C49.2055 62.775 48.7988 62.6086 48.3921 62.4145C47.7542 62.091 46.9963 62.1742 46.4509 62.6086L43.2618 65.086L40.9046 62.7288L43.3727 59.5489C43.8164 58.9943 43.8903 58.2363 43.5853 57.617C43.3912 57.2102 43.2248 56.8035 43.0769 56.4153C42.8458 55.7312 42.2634 55.2413 41.5609 55.1674L37.5676 54.659V51.3404L41.5516 50.832C42.2449 50.7488 42.8458 50.2681 43.0584 49.6211C43.2155 49.1959 43.3912 48.7799 43.576 48.4009C43.8996 47.7631 43.8164 47.0051 43.3819 46.4689L40.9046 43.2798L43.2618 40.9226L46.4324 43.3907C46.987 43.8344 47.745 43.9176 48.3643 43.6034C48.7618 43.4092 49.1778 43.2428 49.566 43.0949C50.2501 42.8638 50.74 42.2815 50.8232 41.579L51.3316 37.5856H54.6501L55.1585 41.5697C55.2417 42.2722 55.7132 42.8638 56.3695 43.0765C56.7947 43.2336 57.2107 43.4092 57.5897 43.5941C58.2275 43.9084 58.9855 43.8344 59.5216 43.4L62.7107 40.9226L65.0679 43.2798L62.5998 46.4597C62.1561 47.0143 62.0729 47.7723 62.3872 48.3916C62.5813 48.7984 62.757 49.2051 62.8956 49.5933C63.1175 50.2774 63.7091 50.7673 64.4024 50.8413L68.3957 51.3497V54.659H68.4142Z" fill="white"/>
<path d="M47.3288 55.3522C48.2809 57.6539 50.5087 59.1422 53.0045 59.1422C56.3877 59.1422 59.1424 56.3875 59.1424 52.995C59.1424 50.4992 57.6542 48.2714 55.3524 47.3193C54.5852 47.005 53.7902 46.8479 52.9953 46.8479C51.3961 46.8479 49.8339 47.4765 48.6599 48.6504C46.8944 50.4253 46.3767 53.0505 47.3288 55.3522ZM50.4994 50.4992C51.4978 49.5009 53.0507 49.1866 54.3541 49.732C55.6852 50.2774 56.5356 51.5622 56.5356 53.0043C56.5356 54.9547 54.9457 56.5447 52.9953 56.5447C51.5625 56.5447 50.2776 55.685 49.723 54.3631C49.1868 53.032 49.4826 51.516 50.4994 50.4992Z" fill="white"/>
<path d="M85.7368 41.7642C85.7368 40.8028 84.951 40.0171 83.9804 40.0171C83.0098 40.0171 82.2334 40.8028 82.2334 41.7642V50.5181H79.9317C78.9703 50.5181 78.1846 51.3038 78.1846 52.2651C78.1846 53.2265 78.9703 54.0215 79.9317 54.0215H83.9897C84.951 54.0215 85.746 53.2357 85.746 52.2651V41.7642H85.7368Z" fill="white"/>
<path d="M24.2195 51.248H17.0371C16.0757 51.248 15.2808 52.0338 15.2808 53.0044V61.8507C15.2808 62.8121 16.0665 63.607 17.0371 63.607C18.0077 63.607 18.7934 62.8213 18.7934 61.8507V54.7607H24.2288C25.1901 54.7607 25.9759 53.975 25.9759 53.0136C25.9759 52.0523 25.1901 51.248 24.2195 51.248Z" fill="white"/>
<path d="M54.7518 21.4736C54.7518 20.5123 53.9661 19.7173 53.0047 19.7173H40.8399C39.8785 19.7173 39.0928 20.503 39.0928 21.4736C39.0928 22.4442 39.8785 23.2207 40.8399 23.2207H51.2484V26.9922C51.2484 27.9535 52.0341 28.7392 52.9955 28.7392C53.9568 28.7392 54.7425 27.9535 54.7425 26.9922V21.4736H54.7518Z" fill="white"/>
<path d="M70.8819 86.0976H54.7515V79.932C54.7515 78.9706 53.9658 78.1757 53.0044 78.1757C52.043 78.1757 51.2573 78.9614 51.2573 79.932V87.8539C51.2573 88.8153 52.043 89.6103 53.0044 89.6103H70.8819C71.8433 89.6103 72.629 88.8245 72.629 87.8539C72.629 86.8833 71.8433 86.0976 70.8819 86.0976Z" fill="white"/>
</svg>
