<svg width="38" height="36" viewBox="0 0 38 36" fill="none" xmlns="http://www.w3.org/2000/svg">
<path d="M37.6657 15.3615C37.6657 7.00697 29.2902 0.209961 18.995 0.209961C8.70147 0.209961 0.324219 7.00697 0.324219 15.3615C0.324219 22.8515 6.96722 29.1235 15.9395 30.31C16.5467 30.4412 17.3745 30.7107 17.5845 31.2305C17.7735 31.703 17.707 32.4415 17.6457 32.9192C17.6457 32.9192 17.427 34.237 17.3797 34.517C17.2975 34.9895 17.0052 36.3632 18.9967 35.5232C20.99 34.6832 29.7487 29.1917 33.6652 24.6837C36.369 21.7175 37.6657 18.7057 37.6657 15.3615Z" fill="white"/>
<path d="M31.4533 20.1864H26.2156H26.2086C26.0108 20.1864 25.8516 20.0272 25.8516 19.8294V19.8242V11.6902V11.6832C25.8516 11.4854 26.0108 11.3262 26.2086 11.3262H26.2156H31.4533C31.6493 11.3262 31.8103 11.4872 31.8103 11.6832V13.0079C31.8103 13.2057 31.6511 13.3649 31.4533 13.3649H27.8886V14.7404H31.4533C31.6493 14.7404 31.8103 14.9014 31.8103 15.0974V16.4222C31.8103 16.6199 31.6511 16.7792 31.4533 16.7792H27.8886V18.1547H31.4533C31.6493 18.1547 31.8103 18.3157 31.8103 18.5117V19.8364C31.8103 20.0272 31.6511 20.1864 31.4533 20.1864Z" fill="#06C755"/>
<path d="M12.0508 20.186C12.2468 20.186 12.4078 20.0268 12.4078 19.829V18.5043C12.4078 18.3083 12.2468 18.1473 12.0508 18.1473H8.48602V11.6793C8.48602 11.4833 8.32502 11.3223 8.12902 11.3223H6.80427C6.60652 11.3223 6.44727 11.4815 6.44727 11.6793V19.822V19.8273C6.44727 20.025 6.60652 20.1843 6.80427 20.1843H6.81127H12.0508V20.186Z" fill="#06C755"/>
<path d="M15.2076 11.3242H13.8829C13.6869 11.3242 13.5259 11.4835 13.5259 11.6812V19.8292C13.5259 20.0252 13.6851 20.1862 13.8829 20.1862H15.2076C15.4054 20.1862 15.5646 20.027 15.5646 19.8292V11.6812C15.5646 11.4852 15.4054 11.3242 15.2076 11.3242Z" fill="#06C755"/>
<path d="M24.2221 11.3242H22.8973C22.6996 11.3242 22.5403 11.4835 22.5403 11.6812V16.52L18.8129 11.4852C18.8041 11.473 18.7936 11.4607 18.7849 11.4485L18.7831 11.4467C18.7761 11.4397 18.7691 11.431 18.7621 11.424C18.7604 11.4222 18.7569 11.4205 18.7551 11.4187C18.7481 11.4135 18.7429 11.4082 18.7359 11.403C18.7324 11.4012 18.7289 11.3977 18.7254 11.396C18.7201 11.3907 18.7131 11.3872 18.7061 11.3837C18.7026 11.382 18.6991 11.3785 18.6956 11.3767C18.6886 11.3732 18.6834 11.3697 18.6764 11.3662C18.6729 11.3645 18.6694 11.3627 18.6659 11.361C18.6589 11.3575 18.6519 11.354 18.6449 11.3522C18.6414 11.3505 18.6379 11.3487 18.6326 11.3487C18.6256 11.347 18.6186 11.3435 18.6116 11.3417C18.6081 11.34 18.6029 11.34 18.5994 11.3382C18.5924 11.3365 18.5854 11.3347 18.5784 11.333C18.5731 11.3312 18.5679 11.3312 18.5626 11.3312C18.5556 11.3295 18.5504 11.3295 18.5434 11.3295C18.5364 11.3295 18.5311 11.3295 18.5241 11.3277C18.5206 11.3277 18.5154 11.3277 18.5119 11.3277H17.1959C16.9999 11.3277 16.8389 11.487 16.8389 11.6847V19.8327C16.8389 20.0287 16.9981 20.1897 17.1959 20.1897H18.5206C18.7184 20.1897 18.8776 20.0305 18.8776 19.8327V14.994L22.6103 20.0357C22.6366 20.0725 22.6681 20.1022 22.7031 20.125C22.7048 20.1267 22.7066 20.1267 22.7066 20.1285C22.7136 20.1337 22.7206 20.1372 22.7293 20.1425C22.7328 20.1442 22.7363 20.146 22.7398 20.1477C22.7451 20.1512 22.7521 20.153 22.7573 20.1565C22.7626 20.16 22.7696 20.1617 22.7748 20.1635C22.7783 20.1652 22.7818 20.167 22.7853 20.167C22.7941 20.1705 22.8011 20.1722 22.8098 20.174C22.8116 20.174 22.8133 20.1757 22.8151 20.1757C22.8448 20.1827 22.8763 20.188 22.9078 20.188H24.2238C24.4198 20.188 24.5808 20.0287 24.5808 19.831V11.683C24.5791 11.4852 24.4198 11.3242 24.2221 11.3242Z" fill="#06C755"/>
</svg>
