<svg width="24" height="24" viewBox="0 0 24 24" fill="none" xmlns="http://www.w3.org/2000/svg">
<path d="M18.5895 24H5.4105C2.4225 24 0 21.5775 0 18.5895V5.4105C0 2.4225 2.4225 0 5.4105 0H18.5895C21.5775 0 24 2.4225 24 5.4105V18.5895C24 21.5775 21.5775 24 18.5895 24Z" fill="#06C755"/>
<path d="M19.9996 10.8695C19.9996 7.28898 16.4101 4.37598 11.9978 4.37598C7.58634 4.37598 3.99609 7.28898 3.99609 10.8695C3.99609 14.0795 6.84309 16.7675 10.6883 17.276C10.9486 17.3322 11.3033 17.4477 11.3933 17.6705C11.4743 17.873 11.4458 18.1895 11.4196 18.3942C11.4196 18.3942 11.3258 18.959 11.3056 19.079C11.2703 19.2815 11.1451 19.8702 11.9986 19.5102C12.8528 19.1502 16.6066 16.7967 18.2851 14.8647C19.4438 13.5935 19.9996 12.3027 19.9996 10.8695Z" fill="white"/>
<path d="M17.3373 12.9379H15.0925H15.0895C15.0048 12.9379 14.9365 12.8696 14.9365 12.7849V12.7826V9.29663V9.29363C14.9365 9.20888 15.0048 9.14062 15.0895 9.14062H15.0925H17.3373C17.4213 9.14062 17.4903 9.20963 17.4903 9.29363V9.86137C17.4903 9.94612 17.422 10.0144 17.3373 10.0144H15.8095V10.6039H17.3373C17.4213 10.6039 17.4903 10.6729 17.4903 10.7569V11.3246C17.4903 11.4094 17.422 11.4776 17.3373 11.4776H15.8095V12.0671H17.3373C17.4213 12.0671 17.4903 12.1361 17.4903 12.2201V12.7879C17.4903 12.8696 17.422 12.9379 17.3373 12.9379Z" fill="#06C755"/>
<path d="M9.02162 12.9374C9.10562 12.9374 9.17462 12.8692 9.17462 12.7844V12.2167C9.17462 12.1327 9.10562 12.0637 9.02162 12.0637H7.49387V9.29167C7.49387 9.20767 7.42487 9.13867 7.34087 9.13867H6.77312C6.68837 9.13867 6.62012 9.20692 6.62012 9.29167V12.7814V12.7837C6.62012 12.8684 6.68837 12.9367 6.77312 12.9367H6.77612H9.02162V12.9374Z" fill="#06C755"/>
<path d="M10.3741 9.13965H9.80632C9.72232 9.13965 9.65332 9.2079 9.65332 9.29265V12.7846C9.65332 12.8686 9.72157 12.9376 9.80632 12.9376H10.3741C10.4588 12.9376 10.5271 12.8694 10.5271 12.7846V9.29265C10.5271 9.20865 10.4588 9.13965 10.3741 9.13965Z" fill="#06C755"/>
<path d="M14.2385 9.13965H13.6707C13.586 9.13965 13.5177 9.2079 13.5177 9.29265V11.3664L11.9202 9.20865C11.9165 9.2034 11.912 9.19815 11.9082 9.1929L11.9075 9.19215C11.9045 9.18915 11.9015 9.1854 11.8985 9.1824C11.8977 9.18165 11.8962 9.1809 11.8955 9.18015C11.8925 9.1779 11.8902 9.17565 11.8872 9.1734C11.8857 9.17265 11.8842 9.17115 11.8827 9.1704C11.8805 9.16815 11.8775 9.16665 11.8745 9.16515C11.873 9.1644 11.8715 9.1629 11.87 9.16215C11.867 9.16065 11.8647 9.15915 11.8617 9.15765C11.8602 9.1569 11.8587 9.15615 11.8572 9.1554C11.8542 9.1539 11.8512 9.1524 11.8482 9.15165C11.8467 9.1509 11.8452 9.15015 11.843 9.15015C11.84 9.1494 11.837 9.1479 11.834 9.14715C11.8325 9.1464 11.8302 9.1464 11.8287 9.14565C11.8257 9.1449 11.8227 9.14415 11.8197 9.1434C11.8175 9.14265 11.8152 9.14265 11.813 9.14265C11.81 9.1419 11.8077 9.1419 11.8047 9.1419C11.8017 9.1419 11.7995 9.1419 11.7965 9.14115C11.795 9.14115 11.7927 9.14115 11.7912 9.14115H11.2272C11.1432 9.14115 11.0742 9.2094 11.0742 9.29415V12.7861C11.0742 12.8701 11.1425 12.9391 11.2272 12.9391H11.795C11.8797 12.9391 11.948 12.8709 11.948 12.7861V10.7124L13.5477 12.8731C13.559 12.8889 13.5725 12.9016 13.5875 12.9114C13.5882 12.9121 13.589 12.9121 13.589 12.9129C13.592 12.9151 13.595 12.9166 13.5987 12.9189C13.6002 12.9196 13.6017 12.9204 13.6032 12.9211C13.6055 12.9226 13.6085 12.9234 13.6107 12.9249C13.613 12.9264 13.616 12.9271 13.6182 12.9279C13.6197 12.9286 13.6212 12.9294 13.6227 12.9294C13.6265 12.9309 13.6295 12.9316 13.6332 12.9324C13.634 12.9324 13.6347 12.9331 13.6355 12.9331C13.6482 12.9361 13.6617 12.9384 13.6752 12.9384H14.2392C14.3232 12.9384 14.3922 12.8701 14.3922 12.7854V9.2934C14.3915 9.20865 14.3232 9.13965 14.2385 9.13965Z" fill="#06C755"/>
</svg>
