<svg width="160" height="27" viewBox="0 0 160 27" fill="none" xmlns="http://www.w3.org/2000/svg">
<path d="M5.64927 25.92H0.687012V0.393433H5.64927V25.92Z" fill="white"/>
<path d="M29.7184 4.84251H23.0725V25.92H18.1102V4.84251H11.4644V0.393433H29.7184V4.84251Z" fill="white"/>
<path d="M52.2924 25.92H35.5337V0.393433H52.2813V4.84251H40.507V10.8265H50.5423V15.2756H40.507V21.4821H52.2924V25.92Z" fill="white"/>
<path d="M81.9663 25.92H77.004V11.0379L72.1415 20.7146H68.7853L63.8895 11.0379V25.92H58.9272V0.393433H63.8009L70.4135 14.1967L76.9929 0.393433H81.9552V25.92H81.9663Z" fill="white"/>
<path d="M108.217 25.92H103.255V15.2311H94.6488V25.92H89.6865V0.393433H94.6488V10.8265H103.255V0.393433H108.217V25.92Z" fill="white"/>
<path d="M134.247 17.1776C134.247 19.8359 133.35 21.9937 131.567 23.651C129.783 25.3083 127.557 26.1425 124.887 26.1425C122.218 26.1425 119.992 25.3083 118.208 23.651C116.425 21.9937 115.528 19.8359 115.528 17.1776V0.393433H120.49V16.9996C120.49 18.4567 120.878 19.6023 121.664 20.4477C122.451 21.2819 123.525 21.7045 124.876 21.7045C126.239 21.7045 127.313 21.2819 128.111 20.4477C128.908 19.6135 129.307 18.4678 129.307 16.9996V0.393433H134.236V17.1776H134.247Z" fill="white"/>
<path d="M160 18.5679C160 20.8926 159.291 22.6944 157.862 23.9847C156.433 25.2749 154.55 25.92 152.224 25.92H141.58V0.393433H151.792C154.24 0.393433 156.167 1.03855 157.563 2.32878C158.959 3.61901 159.656 5.36528 159.656 7.56757C159.656 8.85781 159.302 10.0146 158.582 11.049C157.984 11.8609 157.297 12.4616 156.511 12.8397C158.826 13.9298 160 15.8429 160 18.5679ZM154.672 7.7789C154.672 6.90021 154.384 6.18836 153.819 5.64335C153.243 5.10946 152.435 4.83139 151.393 4.83139H146.531V10.7153H151.393C152.446 10.7153 153.254 10.4484 153.819 9.90334C154.384 9.35833 154.672 8.6576 154.672 7.7789ZM155.037 18.3232C155.037 17.4112 154.749 16.6659 154.185 16.0876C153.609 15.4981 152.789 15.2089 151.726 15.2089H146.542V21.4821H151.726C152.8 21.4821 153.62 21.1818 154.185 20.5811C154.749 19.9805 155.037 19.2242 155.037 18.3232Z" fill="white"/>
</svg>
