<svg width="32" height="32" viewBox="0 0 32 32" fill="none" xmlns="http://www.w3.org/2000/svg">
<path d="M29.7291 9.04276C29.862 8.94265 29.9949 8.83143 30.1389 8.70908C30.2275 8.63122 30.3272 8.56448 30.4158 8.48662C30.4379 8.46438 30.4601 8.43101 30.4823 8.40876C30.593 8.30866 30.7038 8.19743 30.8145 8.08621C30.8145 8.08621 30.7924 8.05284 30.7813 8.04172C32.3209 6.09524 32.2102 3.25896 30.4158 1.4682C28.6879 -0.266939 25.9963 -0.433779 24.069 0.934312C23.9804 0.967681 23.8918 0.989926 23.8142 1.06778C23.7145 1.16789 23.6259 1.26799 23.5262 1.3681C23.493 1.40147 23.4487 1.42371 23.4155 1.45708C23.3379 1.53494 23.2936 1.6128 23.2272 1.69066C19.7824 5.5836 20.5467 9.04276 14.7315 14.8822C8.42902 21.211 5.50483 19.9208 2.04898 22.9128C1.86068 23.0685 1.70561 23.2464 1.57269 23.4133C1.52838 23.4466 1.48408 23.48 1.45085 23.5134C-0.476455 25.4487 -0.476455 28.5965 1.45085 30.5429C3.37815 32.4783 6.51279 32.4783 8.45117 30.5429C8.51763 30.4762 8.56194 30.3983 8.6284 30.3316C8.77239 30.2092 8.91638 30.0869 9.06038 29.9423C12.0178 26.9725 10.7108 22.301 16.4262 16.5728C23.4819 9.48767 25.9741 11.9013 29.6515 9.12062C29.6626 9.09837 29.6958 9.065 29.7291 9.04276Z" fill="url(#paint0_linear_88_817)"/>
<path d="M8.45117 8.48661C10.3785 6.55126 10.3785 3.40354 8.45117 1.45707C6.52387 -0.478283 3.38923 -0.478283 1.45085 1.45707C-0.476455 3.39242 -0.476455 6.54014 1.45085 8.48661C3.37815 10.422 6.51279 10.422 8.45117 8.48661Z" fill="url(#paint1_linear_88_817)"/>
<path d="M23.4157 23.5134C21.4884 25.4488 21.4884 28.5965 23.4157 30.5429C25.343 32.4783 28.4776 32.4783 30.416 30.5429C32.3433 28.6076 32.3433 25.4599 30.416 23.5134C28.4887 21.5781 25.3541 21.5781 23.4157 23.5134Z" fill="url(#paint2_linear_88_817)"/>
<defs>
<linearGradient id="paint0_linear_88_817" x1="15.9276" y1="0.289307" x2="15.9276" y2="31.214" gradientUnits="userSpaceOnUse">
<stop stop-color="#31A9FF"/>
<stop offset="0.6612" stop-color="#30EAFF"/>
<stop offset="1" stop-color="#73FFF5"/>
</linearGradient>
<linearGradient id="paint1_linear_88_817" x1="4.94802" y1="0.289294" x2="4.94802" y2="31.214" gradientUnits="userSpaceOnUse">
<stop stop-color="#31A9FF"/>
<stop offset="0.6612" stop-color="#30EAFF"/>
<stop offset="1" stop-color="#73FFF5"/>
</linearGradient>
<linearGradient id="paint2_linear_88_817" x1="26.9195" y1="0.289323" x2="26.9195" y2="31.214" gradientUnits="userSpaceOnUse">
<stop stop-color="#31A9FF"/>
<stop offset="0.6612" stop-color="#30EAFF"/>
<stop offset="1" stop-color="#73FFF5"/>
</linearGradient>
</defs>
</svg>
