<svg width="237" height="46" viewBox="0 0 237 46" fill="none" xmlns="http://www.w3.org/2000/svg">
<path d="M33.1744 14.4862C33.1744 18.4678 31.8443 21.7716 29.1842 24.3978C26.3525 27.1934 22.6413 28.5912 18.0505 28.5912H9.23367V45.6188H0.288086V0.381218H18.0505C22.6413 0.381218 26.3525 1.77901 29.1842 4.57459C31.8443 7.20074 33.1744 10.5046 33.1744 14.4862ZM24.2288 14.4862C24.2288 12.6225 23.6281 11.1188 22.4268 9.97514C21.2255 8.83149 19.6165 8.25967 17.6 8.25967H9.23367V20.6492H17.6C19.6165 20.6492 21.2255 20.0985 22.4268 18.9972C23.6281 17.8536 24.2288 16.3499 24.2288 14.4862Z" fill="white"/>
<path d="M75.3878 45.6188H65.0264L56.0808 27.5746H49.6451V45.6188H40.6996V0.381218H58.6551C63.2029 0.381218 66.8498 1.73665 69.5957 4.44752C72.2129 7.03131 73.5215 10.2928 73.5215 14.232C73.5215 17.2394 72.6848 19.8232 71.0116 21.9834C69.5099 23.8895 67.5578 25.2661 65.1551 26.1133L75.3878 45.6188ZM64.5759 14.232C64.5759 12.453 63.9752 11.0129 62.7739 9.9116C61.5726 8.81032 60.0066 8.25967 58.0759 8.25967H49.6451V20.2044H58.0759C60.0066 20.2044 61.5726 19.6538 62.7739 18.5525C63.9752 17.4512 64.5759 16.011 64.5759 14.232Z" fill="white"/>
<path d="M91.7535 45.6188H82.8079V0.381218H91.7535V45.6188Z" fill="white"/>
<path d="M130.476 40.7901C126.872 44.2634 122.625 46 117.734 46C112.842 46 108.724 44.3481 105.377 41.0442C103.318 39.011 101.988 36.4061 101.387 33.2293C101.044 31.3656 100.872 27.9558 100.872 23C100.872 18.0442 101.044 14.6344 101.387 12.7707C101.988 9.59392 103.318 6.98895 105.377 4.9558C108.724 1.65193 112.842 0 117.734 0C122.625 0 126.872 1.73665 130.476 5.20995L124.555 11.0552C122.41 8.93738 120.136 7.87845 117.734 7.87845C115.073 7.87845 113.014 8.87385 111.555 10.8646C110.397 12.4742 109.818 16.5193 109.818 23C109.818 26.5157 109.861 28.7182 109.946 29.6077C110.247 32.4457 110.955 34.5 112.07 35.7707C113.486 37.3379 115.374 38.1215 117.734 38.1215C120.136 38.1215 122.41 37.0626 124.555 34.9448L130.476 40.7901Z" fill="white"/>
<path d="M147.5 45.6188H138.554V0.381218H147.5V45.6188Z" fill="white"/>
<path d="M193.237 45.6188H185.257L167.109 17.8536V45.6188H158.163V0.381218H166.143L184.292 28.0829V0.381218H193.237V45.6188Z" fill="white"/>
<path d="M236.288 26.9392C236.288 33.2505 234.872 37.8674 232.041 40.7901C228.651 44.2634 224.382 46 219.234 46C214.342 46 210.224 44.3481 206.877 41.0442C204.818 39.011 203.488 36.4061 202.887 33.2293C202.544 31.3656 202.372 27.9558 202.372 23C202.372 18.0442 202.544 14.6344 202.887 12.7707C203.488 9.59392 204.818 6.98895 206.877 4.9558C210.224 1.65193 214.342 0 219.234 0C222.323 0 224.94 0.444752 227.085 1.33426C229.102 2.22376 231.161 3.70626 233.263 5.78177L227.214 11.7541C225.798 10.3564 224.597 9.38214 223.61 8.83149C222.366 8.19613 220.907 7.87845 219.234 7.87845C216.874 7.87845 214.965 8.68324 213.506 10.2928C212.39 11.5635 211.704 13.5967 211.446 16.3923C211.361 17.1547 211.318 19.3573 211.318 23C211.318 26.6427 211.361 28.8453 211.446 29.6077C211.704 32.4457 212.39 34.5 213.506 35.7707C214.922 37.3379 216.831 38.1215 219.234 38.1215C221.722 38.1215 223.76 37.2744 225.347 35.5801C226.677 34.14 227.343 32.0856 227.343 29.4171V27.8287H219.234V20.4586H236.288V26.9392Z" fill="white"/>
</svg>
