<svg width="106" height="105" viewBox="0 0 106 105" fill="none" xmlns="http://www.w3.org/2000/svg">
<path d="M72.3314 69.0575C72.8003 69.0668 73.2691 68.853 73.5584 68.4812C74.4262 67.3563 74.8751 66.0269 74.8651 64.6325C74.8451 63.2473 74.3663 61.9272 73.4786 60.8117C73.1793 60.4398 72.7205 60.2446 72.2417 60.2632C71.7529 60.2818 71.324 60.5142 71.0546 60.8953L71.0447 60.9046C70.7155 61.388 70.7454 62.0016 71.1245 62.4757C71.6432 63.1172 71.9125 63.9074 71.8925 64.7068C71.9125 65.4784 71.6631 66.2221 71.1743 66.8543C70.8053 67.3377 70.7853 67.9606 71.1245 68.4347C71.4038 68.8251 71.8427 69.0482 72.3314 69.0575Z" fill="white"/>
<path d="M75.7528 73.1658C76.0421 73.4632 76.471 73.6492 76.8999 73.6213C77.3189 73.612 77.6879 73.4446 77.9473 73.1472C80.042 70.7394 81.1792 67.6995 81.1592 64.6038C81.1393 61.4988 79.9523 58.4868 77.8176 56.0976C77.5583 55.8094 77.1792 55.6421 76.7603 55.6328C76.3114 55.6328 75.9024 55.8001 75.6231 56.1069C75.1343 56.6275 75.1443 57.3898 75.6231 57.9383C77.3189 59.8348 78.2366 62.2332 78.1967 64.7061C78.2266 67.1045 77.3488 69.4658 75.7229 71.3437C75.2441 71.8922 75.254 72.6638 75.7428 73.1658H75.7528Z" fill="white"/>
<path d="M51.9527 80.0262C52.6358 80.0262 53.1896 79.5101 53.1896 78.8735C53.1896 78.2368 52.6358 77.7207 51.9527 77.7207C51.2696 77.7207 50.7158 78.2368 50.7158 78.8735C50.7158 79.5101 51.2696 80.0262 51.9527 80.0262Z" fill="white"/>
<path d="M29.0499 64.6318C29.03 66.0262 29.4888 67.3556 30.3567 68.4805C30.6459 68.8523 31.0948 69.0661 31.5836 69.0568C32.0724 69.0475 32.5113 68.8244 32.7806 68.4526C33.1297 67.9692 33.1098 67.3463 32.7407 66.8536C32.2519 66.2214 32.0025 65.4684 32.0225 64.6875C32.0025 63.8973 32.2818 63.1072 32.7906 62.4657C33.1696 61.9916 33.2095 61.378 32.8704 60.8946L32.8604 60.8853C32.601 60.5042 32.1621 60.2718 31.6734 60.2532C31.6534 60.2532 31.6335 60.2532 31.6135 60.2532C31.1447 60.2532 30.7158 60.4484 30.4265 60.8017C29.5387 61.9172 29.0599 63.2373 29.0499 64.6318Z" fill="white"/>
<path d="M27.1447 55.6328C26.7257 55.6421 26.3467 55.8001 26.0873 56.0976C23.9527 58.4775 22.7656 61.4988 22.7457 64.6038C22.7158 67.7088 23.8629 70.7394 25.9576 73.1472C26.217 73.4446 26.5861 73.612 27.005 73.6213C27.4539 73.6399 27.8629 73.4632 28.1521 73.1657C28.6509 72.6544 28.6609 71.8829 28.1821 71.3344C26.5561 69.4658 25.6783 67.1045 25.7083 64.6968C25.6684 62.2332 26.5861 59.8348 28.2818 57.9383C28.7706 57.3898 28.7706 56.6275 28.2918 56.1162L28.4713 55.9582L28.2818 56.1069C28.0025 55.8094 27.5935 55.6328 27.1646 55.6328C27.1546 55.6328 27.1546 55.6328 27.1447 55.6328Z" fill="white"/>
<path d="M60.0422 42.4319H43.8628C40.1621 42.4319 37.1396 45.2394 37.1396 48.6976V78.855C37.1396 82.304 40.1521 85.1208 43.8628 85.1208H60.0422C63.743 85.1208 66.7654 82.3133 66.7654 78.855V48.6883C66.7654 45.2394 63.743 42.4319 60.0422 42.4319ZM43.783 50.4918C43.9226 51.3192 44.7506 51.9421 45.7082 51.9421H63.0248V72.5893H61.4786C60.4512 72.5893 59.6133 73.3702 59.6133 74.3277C59.6133 75.2852 60.4512 76.0661 61.4786 76.0661H63.0248V78.8457C63.0248 80.3796 61.6881 81.6254 60.0422 81.6254H43.8628C42.2169 81.6254 40.8803 80.3796 40.8803 78.8457V76.0661H55.8827C56.9101 76.0661 57.748 75.2852 57.748 74.3277C57.748 73.3702 56.9101 72.5893 55.8827 72.5893H40.8803V48.6976C40.8803 47.1637 42.2169 45.918 43.8628 45.918H60.0422C61.4786 45.918 62.7155 46.8755 62.9749 48.1956L63.0248 48.4652H45.6184C45.0698 48.4652 44.5511 48.6883 44.192 49.0788C43.8428 49.4599 43.6932 49.9805 43.783 50.4918Z" fill="white"/>
<path d="M98.6055 42.5157L90.5257 34.9763L75.0645 20.7343L53.4187 3.18278C53.0297 2.82022 52.501 2.625 51.9524 2.625C51.4038 2.625 50.8751 2.82022 50.516 3.15489L45.4687 7.85885C45.0896 8.21212 44.8702 8.69553 44.8702 9.19753C44.8702 9.69953 45.0796 10.1829 45.4687 10.5362C46.1968 11.2148 47.6133 11.2148 48.3415 10.5362L51.9624 7.16163L95.8624 45.2953C96.7003 46.0762 96.9397 47.2197 96.4908 48.2237C96.0419 49.2277 95.0045 49.8784 93.8474 49.8784C93.0793 49.8784 92.3512 49.5902 91.7926 49.0789L53.4088 16.0954C53.0397 15.7515 52.511 15.5562 51.9524 15.5562C51.4038 15.5562 50.8851 15.7422 50.5459 16.0582L12.0823 49.1068C10.9751 50.1015 9.16963 50.0736 8.07238 49.0603C6.97513 48.0377 6.94521 46.3737 7.99258 45.3511L42.7954 15.7515C43.5734 15.0264 43.5734 13.8271 42.7754 13.0834C41.9874 12.349 40.7006 12.3397 39.9325 13.0555L5.27938 42.525C3.63351 44.0589 2.85546 46.1878 3.21456 48.2051C3.76318 51.3658 6.64596 53.662 10.0674 53.662C11.6634 53.662 13.2195 53.1414 14.4564 52.2025L15.2743 51.5797V83.0386C15.2743 84.0054 16.0025 84.842 16.9701 84.9908C17.5686 85.0838 18.1671 84.9257 18.6259 84.5632C19.0848 84.2006 19.3441 83.6707 19.3441 83.1222V47.7217L19.5037 47.5822L51.9724 20.0743L84.6006 47.7217V90.2618H33.8378C32.8004 90.2618 31.9027 90.9405 31.7431 91.8422C31.6433 92.4 31.8129 92.9578 32.2019 93.3854C32.5909 93.813 33.1495 94.0547 33.748 94.0547H91.5232V98.5914H12.3916V94.0547H23.6134C24.6508 94.0547 25.5586 93.3761 25.7082 92.4744C25.8079 91.9166 25.6384 91.3588 25.2493 90.9312C24.8603 90.5035 24.2917 90.2618 23.7032 90.2618H10.3567C9.23946 90.2618 8.32176 91.1078 8.32176 92.1583V100.479C8.32176 101.52 9.22948 102.375 10.3567 102.375H93.5382C94.6554 102.375 95.5731 101.529 95.5731 100.479V92.1583C95.5731 91.1171 94.6654 90.2618 93.5382 90.2618H88.6405V51.5983L89.4584 52.2211C90.6754 53.1414 92.2614 53.6713 93.8175 53.6713C93.8275 53.6713 93.8275 53.6713 93.8374 53.6713C97.2589 53.6713 100.142 51.3751 100.69 48.2051C101.039 46.1878 100.261 44.0589 98.6055 42.5157Z" fill="white"/>
</svg>
