<svg width="89" height="88" viewBox="0 0 89 88" fill="none" xmlns="http://www.w3.org/2000/svg">
<path d="M50.2336 0C52.2441 0.662923 53.3672 2.08175 53.7299 4.1084C57.4762 3.41793 60.2807 4.67834 62.1856 7.73984C63.8809 10.4621 63.6116 13.682 61.5747 16.165C60.3652 17.6389 59.0889 19.0612 57.9005 20.5506C57.5414 21 57.2491 21.5717 57.1435 22.1278C56.5907 25.0361 55.3725 27.6258 53.4518 29.9004C52.4448 31.0919 51.4501 32.299 50.3691 33.4251C49.7987 34.0174 49.6878 34.5374 50.0927 35.2227C50.2793 35.5396 50.3938 35.8977 50.5698 36.3058C50.8392 36.2163 51.0856 36.156 51.3145 36.0578C53.1613 35.2692 55.008 34.4772 56.8495 33.6782C58.9163 32.7811 61.6328 33.9726 62.5253 36.2438C63.8035 39.4999 65.0217 42.7783 66.2664 46.0465C67.7364 49.9052 69.2099 53.7605 70.6729 57.6209C71.6482 60.1882 70.8261 62.2355 68.3174 63.4805C66.3386 64.4637 64.3492 65.4279 62.2613 66.4507C62.5958 67.2583 62.9162 68.0417 63.2471 68.8217C63.6961 69.8772 64.1767 70.9224 64.5974 71.9883C64.7717 72.4291 65.0041 72.603 65.4953 72.5909C66.7822 72.5582 68.0726 72.5703 69.3596 72.5823C71.8067 72.6064 73.0672 73.4794 73.9228 75.723C74.289 76.6838 74.6516 77.6481 75.0583 78.7208C67.0128 81.8047 58.9973 84.8748 50.8445 88C50.2547 86.0422 48.9097 84.372 49.1051 82.2283C49.1984 81.2124 49.7019 80.3893 50.4501 79.6954C51.4677 78.7466 52.4993 77.8117 53.4764 76.8233C53.6789 76.6184 53.8038 76.1621 53.7193 75.8952C53.0028 73.6292 52.2441 71.3736 51.4536 69.1317C51.3673 68.8854 51.0205 68.5962 50.76 68.56C48.6157 68.2638 46.4661 68.009 44.3148 67.7834C43.9944 67.7507 43.6352 67.9057 43.3201 68.0331C29.9245 73.457 16.5324 78.8895 3.13861 84.3186C2.84285 84.4392 2.54181 84.5425 2.16858 84.6819C1.78832 83.8623 1.41861 83.0634 0.996094 82.1508C9.78448 78.5865 18.5447 75.0343 27.3876 71.4476C25.7328 66.5936 24.092 61.781 22.4319 56.9081C15.6152 59.5735 8.86726 62.2114 2.0295 64.8855C1.67917 63.9695 1.35699 63.1275 0.997854 62.1908C2.73194 61.4986 4.42553 60.8202 6.12089 60.1469C16.0342 56.2107 25.944 52.2728 35.8644 48.3538C36.3891 48.1471 36.639 47.8871 36.7359 47.331C36.9665 46.0068 37.2904 44.6982 37.5633 43.381C37.7922 42.2755 38.3133 41.3561 39.2023 40.6157C39.3731 40.4727 39.4629 40.0974 39.4136 39.8649C39.1706 38.7009 38.5861 38.0845 37.1883 38.0346C34.5652 37.9398 31.9192 37.7642 29.4316 36.7896C28.4563 36.4074 27.3841 36.1129 26.5778 35.5C24.8966 34.2206 22.9723 34.0174 20.9865 33.8573C19.7049 33.754 18.4109 33.6644 17.1521 33.4199C13.61 32.7295 11.0327 30.1036 10.5468 26.7976C10.0662 23.5329 11.6999 20.4456 14.823 18.7082C14.8969 18.6669 14.9621 18.6083 15.0818 18.5205C14.8477 17.8369 14.5765 17.1516 14.3758 16.4457C13.6734 13.9713 14.7332 11.9498 17.2331 11.0562C21.3527 9.58569 25.4828 8.14965 29.6094 6.69983C35.8539 4.50615 42.0983 2.31248 48.341 0.115366C48.3903 0.098147 48.4255 0.0413251 48.4678 0.00344376C49.0628 0 49.6491 0 50.2336 0ZM47.6544 37.0772C47.2918 36.1284 46.9978 35.2589 46.6281 34.4221C46.3922 33.89 46.4309 33.5215 46.8481 33.0618C48.3833 31.3726 49.936 29.6886 51.348 27.9013C54.3883 24.0564 55.4816 19.6673 54.288 14.9614C53.3761 11.3661 52.0134 7.87931 50.8339 4.35118C50.4026 3.06322 49.8111 2.79633 48.496 3.25779C38.5175 6.76526 28.539 10.2779 18.5605 13.794C17.2366 14.2606 16.955 14.8787 17.4761 16.1788C18.6697 19.1593 19.8527 22.1433 21.0745 25.1119C23.2223 30.3343 27.1341 33.6076 32.7431 34.7613C35.1338 35.2537 37.6161 35.3433 40.0614 35.5533C40.7023 35.6084 41.0614 35.7789 41.2744 36.3953C41.6001 37.3355 42.0191 38.2429 42.4187 39.2158C44.1792 38.496 45.8711 37.8055 47.6544 37.0772ZM60.7701 39.6428C60.455 38.8163 60.1645 38.0449 59.8652 37.2752C59.286 35.7858 58.6787 35.5344 57.1752 36.1646C52.0152 38.3256 46.8605 40.4934 41.6952 42.6406C41.0103 42.9247 40.5896 43.362 40.4523 44.0663C40.1512 45.6125 39.8431 47.1553 39.5632 48.705C39.521 48.9426 39.5667 49.2199 39.646 49.454C41.3272 54.4199 43.0103 59.3858 44.732 64.3397C44.8236 64.6014 45.2215 64.8976 45.5084 64.9354C48.3498 65.3039 51.1983 65.638 54.0486 65.9393C54.6119 65.9996 55.2756 66.0375 55.7598 65.8102C59.6117 64.0091 63.4302 62.1426 67.2575 60.295C67.9001 59.9851 68.1554 59.453 67.9653 58.8004C67.7681 58.1254 67.467 57.4814 67.1924 56.7772C64.8685 57.5417 62.638 58.2769 60.3458 59.0311C60.0413 58.0755 59.7702 57.2214 59.4885 56.3347C61.763 55.6046 63.9196 54.9124 66.1713 54.1892C65.571 52.624 65.0023 51.1415 64.4267 49.64C62.0465 50.4097 59.7596 51.1501 57.434 51.9026C57.1277 50.9572 56.8565 50.117 56.5643 49.2113C58.8529 48.4433 61.1064 47.6857 63.4109 46.9108C62.8035 45.3456 62.2313 43.8666 61.6486 42.3668C59.2033 43.1416 56.883 43.8769 54.5133 44.6259C54.207 43.6668 53.9412 42.8334 53.6524 41.9312C56.0678 41.1546 58.3917 40.4073 60.7701 39.6428ZM25.2099 55.7699C26.8736 60.648 28.5126 65.4555 30.1692 70.3077C34.1761 68.6599 38.0703 67.0585 41.9751 65.4537C40.3026 60.598 38.6636 55.8439 37.014 51.0554C35.0194 51.8388 33.1286 52.581 31.1938 53.3403C32.4649 57.082 33.7096 60.7513 34.9683 64.4568C33.993 64.7581 33.1339 65.025 32.2114 65.3108C30.9896 61.6914 29.7837 58.1151 28.5584 54.4854C27.4229 54.921 26.3454 55.3343 25.2099 55.7699ZM71.0514 77.042C70.7768 75.6524 70.3683 75.2943 69.0814 75.2857C67.8227 75.277 66.5639 75.2615 65.3052 75.2925C64.5235 75.3115 63.7101 75.2977 62.969 75.5009C61.2543 75.971 59.573 76.553 57.8864 77.116C57.5379 77.2314 57.1805 77.4087 56.9129 77.6498C55.4693 78.9464 54.0433 80.2653 52.6278 81.5929C51.767 82.4005 51.7687 83.3079 52.6138 84.2256C58.7561 81.8322 64.9108 79.4354 71.0514 77.042ZM16.3106 21.4408C14.3952 22.4016 13.3565 24.2199 13.5326 26.1966C13.7192 28.3146 15.0378 30.0674 17.0395 30.5564C18.3475 30.875 19.7207 30.9335 21.3492 31.147C18.8281 28.1544 17.807 24.7193 16.3106 21.4408ZM57.7755 16.2786C58.6875 15.0509 60.0025 14.004 60.3441 12.3011C60.9338 9.36013 58.3195 6.13333 54.9376 6.95983C55.8812 10.0558 56.8249 13.1551 57.7755 16.2786ZM54.6418 69.3848C55.1894 70.9448 55.7914 72.665 56.4147 74.4419C58.184 73.8617 59.8846 73.3038 61.6539 72.7235C60.8546 70.9241 60.0959 69.2126 59.3547 67.5406C57.7562 68.1674 56.258 68.7528 54.6418 69.3848Z" fill="#14FFCA"/>
<path d="M71.6094 46.3391C71.6094 45.368 71.6094 44.4898 71.6094 43.5325C73.8294 43.3982 75.7518 42.6337 77.1989 40.929C78.6531 39.2174 79.0034 37.1942 78.845 34.9902C79.8397 34.9902 80.7551 34.9902 81.7973 34.9902C81.6706 37.1546 81.9593 39.1951 83.417 40.9014C84.8535 42.582 86.7197 43.3982 88.9995 43.5066C88.9995 44.433 88.9995 45.3542 88.9995 46.334C86.7425 46.4252 84.85 47.25 83.4029 48.9529C81.9681 50.6421 81.6741 52.6533 81.7973 54.8246C80.7903 54.8246 79.8766 54.8246 78.8608 54.8246C78.9841 52.6739 78.6707 50.6387 77.2183 48.9323C75.787 47.2517 73.9209 46.4321 71.6094 46.3391ZM80.359 42.4029C79.6002 43.1347 78.47 44.2264 77.75 44.9203C78.5087 45.6469 79.6407 46.7334 80.3801 47.4411C81.1019 46.7266 82.204 45.6349 82.9117 44.9358C82.1899 44.2195 81.0738 43.1123 80.359 42.4029Z" fill="#14FFCA"/>
<path d="M75.9281 6.50879C75.8436 8.6422 76.1288 10.6895 77.5953 12.3942C79.0354 14.0678 80.9015 14.8926 83.1831 14.9822C83.1831 15.9016 83.1831 16.8022 83.1831 17.7475C78.0425 18.3346 75.7785 21.3324 75.907 26.3224C74.9493 26.3224 74.0356 26.3224 73.048 26.3224C73.1342 24.1529 72.8437 22.109 71.3773 20.4009C69.9372 18.7238 68.071 17.9076 65.793 17.8164C65.793 16.89 65.793 15.9894 65.793 15.008C67.9936 14.8823 69.916 14.1143 71.3649 12.4114C72.8015 10.7257 73.1536 8.73001 73.0251 6.50879C73.974 6.50879 74.8754 6.50879 75.9281 6.50879ZM74.4845 18.939C75.2415 18.2038 76.363 17.1156 77.0777 16.4199C76.3172 15.6692 75.2028 14.5689 74.4704 13.8474C73.7011 14.6068 72.6026 15.6933 71.9054 16.3838C72.6501 17.1207 73.7486 18.2107 74.4845 18.939Z" fill="#14FFCA"/>
<path d="M19.0584 43.5789C19.0584 44.4726 19.0584 45.3507 19.0584 46.3167C16.8243 46.4321 14.9106 47.2104 13.4565 48.9081C11.9935 50.6145 11.6801 52.6446 11.7822 54.8348C10.8122 54.8348 9.92317 54.8348 8.92321 54.8348C9.05172 49.9585 6.87223 46.897 1.63477 46.2719C1.63477 45.399 1.63477 44.4984 1.63477 43.5273C3.84771 43.405 5.76136 42.6267 7.21729 40.9307C8.68202 39.2226 8.97074 37.1804 8.88624 34.9937C9.85451 34.9937 10.7453 34.9937 11.7418 34.9937C11.6009 39.8752 13.7963 42.9246 19.0584 43.5789ZM10.2858 47.4583C11.0657 46.6938 12.1854 45.5952 12.923 44.8721C12.1414 44.1213 11.034 43.0572 10.321 42.3753C9.54994 43.1192 8.43907 44.1936 7.68734 44.9203C8.43027 45.6452 9.53234 46.7214 10.2858 47.4583Z" fill="#14FFCA"/>
<path d="M46.3573 27.3123C45.6812 26.6615 45.0422 26.0433 44.5669 25.587C45.3203 24.0821 46.227 22.727 46.6953 21.2393C47.6266 18.2759 47.0016 15.347 45.9189 12.5197C45.4189 11.2162 44.7623 9.97131 44.1426 8.62653C44.8573 8.17367 45.6337 7.6795 46.5192 7.11816C48.704 10.7031 50.0578 14.4671 50.0455 18.6324C50.0332 22.0107 48.6846 25.1445 46.3573 27.3123Z" fill="#14FFCA"/>
</svg>
