<svg width="24" height="24" viewBox="0 0 24 24" fill="none" xmlns="http://www.w3.org/2000/svg">
<g clip-path="url(#clip0_970_4019)">
<path d="M7.33047 7.80042L5.88447 7.55292C5.37322 7.46647 4.8496 7.48699 4.34668 7.61317C3.84376 7.73935 3.37247 7.96845 2.96258 8.28601C2.55269 8.60356 2.21311 9.00267 1.96529 9.45812C1.71747 9.91357 1.56679 10.4155 1.52278 10.9321C1.47876 11.4487 1.54237 11.9689 1.70957 12.4597C1.87677 12.9505 2.14394 13.4013 2.4942 13.7836C2.84446 14.1659 3.2702 14.4715 3.74453 14.6809C4.21886 14.8903 4.73146 14.9991 5.24997 15.0004H8.99997V16.5004H5.24997C4.52316 16.5003 3.8043 16.3493 3.13889 16.0569C2.47347 15.7646 1.87602 15.3372 1.38434 14.802C0.892668 14.2667 0.517489 13.6352 0.282559 12.9474C0.0476303 12.2596 -0.0419302 11.5305 0.0195488 10.8063C0.0810277 10.0821 0.292207 9.37859 0.639714 8.74024C0.987222 8.1019 1.46349 7.54266 2.03835 7.09794C2.61322 6.65322 3.27417 6.33271 3.97934 6.1567C4.68451 5.98069 5.41855 5.95301 6.13497 6.07542C6.31267 5.09325 6.68455 4.1564 7.22883 3.31974C7.77312 2.48309 8.47886 1.76343 9.30475 1.20293C10.1306 0.642433 11.06 0.252349 12.0386 0.055527C13.0171 -0.141295 14.025 -0.1409 15.0034 0.0566892C15.9818 0.254279 16.9109 0.64509 17.7363 1.20624C18.5618 1.76739 19.267 2.48759 19.8106 3.32468C20.3542 4.16176 20.7254 5.0989 20.9023 6.08121C21.0792 7.06353 21.0584 8.07127 20.841 9.04542C21.7713 9.19569 22.611 9.69059 23.1931 10.4317C23.7752 11.1729 24.0571 12.1059 23.9826 13.0454C23.9081 13.9849 23.4828 14.8619 22.7912 15.502C22.0996 16.1422 21.1924 16.4986 20.25 16.5004H15V15.0004H20.25C20.8156 15.0001 21.3603 14.7867 21.7757 14.4028C22.191 14.0188 22.4466 13.4926 22.4914 12.9287C22.5362 12.3649 22.3671 11.8049 22.0176 11.3602C21.6681 10.9154 21.1639 10.6187 20.6055 10.5289L19.05 10.2814L19.374 8.73942C19.5303 7.96696 19.5329 7.17127 19.3817 6.39778C19.2305 5.6243 18.9284 4.88817 18.4927 4.23143C18.057 3.57469 17.4963 3.01019 16.8424 2.57017C16.1886 2.13015 15.4544 1.82323 14.682 1.66692C13.9095 1.51062 13.1138 1.50799 12.3403 1.65919C11.5668 1.8104 10.8307 2.11247 10.174 2.54816C9.51723 2.98385 8.95274 3.54463 8.51272 4.19849C8.0727 4.85234 7.76578 5.58646 7.60947 6.35892L7.33197 7.79892L7.33047 7.80042Z" fill="black" fill-opacity="0.45"/>
<path fill-rule="evenodd" clip-rule="evenodd" d="M7.49999 18.7505C7.64063 18.6098 7.83136 18.5309 8.03024 18.5309C8.22911 18.5309 8.41984 18.6098 8.56049 18.7505L12 22.19L15.4395 18.7505C15.5087 18.6788 15.5914 18.6217 15.6829 18.5824C15.7744 18.5431 15.8729 18.5224 15.9724 18.5215C16.072 18.5206 16.1708 18.5396 16.263 18.5773C16.3551 18.615 16.4389 18.6707 16.5093 18.7412C16.5797 18.8116 16.6354 18.8953 16.6731 18.9875C16.7108 19.0797 16.7298 19.1784 16.7289 19.278C16.7281 19.3776 16.7074 19.476 16.6681 19.5675C16.6288 19.659 16.5716 19.7418 16.5 19.811L12.531 23.78C12.4613 23.8498 12.3786 23.9052 12.2874 23.943C12.1963 23.9808 12.0986 24.0003 12 24.0003C11.9013 24.0003 11.8037 23.9808 11.7125 23.943C11.6214 23.9052 11.5387 23.8498 11.469 23.78L7.49999 19.811C7.35938 19.6703 7.2804 19.4796 7.2804 19.2807C7.2804 19.0818 7.35938 18.8911 7.49999 18.7505Z" fill="black" fill-opacity="0.45"/>
<path fill-rule="evenodd" clip-rule="evenodd" d="M12 9C12.1989 9 12.3897 9.07902 12.5303 9.21967C12.671 9.36032 12.75 9.55109 12.75 9.75V21.75C12.75 21.9489 12.671 22.1397 12.5303 22.2803C12.3897 22.421 12.1989 22.5 12 22.5C11.8011 22.5 11.6103 22.421 11.4697 22.2803C11.329 22.1397 11.25 21.9489 11.25 21.75V9.75C11.25 9.55109 11.329 9.36032 11.4697 9.21967C11.6103 9.07902 11.8011 9 12 9Z" fill="black" fill-opacity="0.45"/>
</g>
<defs>
<clipPath id="clip0_970_4019">
<rect width="24" height="24" fill="white"/>
</clipPath>
</defs>
</svg>
