<svg width="24" height="24" viewBox="0 0 24 24" fill="none" xmlns="http://www.w3.org/2000/svg">
<g clip-path="url(#clip0_748_10919)">
<path fill-rule="evenodd" clip-rule="evenodd" d="M12 22.5244C14.5859 22.5244 17.0658 21.4972 18.8943 19.6687C20.7228 17.8402 21.75 15.3603 21.75 12.7744C21.75 10.1886 20.7228 7.7086 18.8943 5.88012C17.0658 4.05164 14.5859 3.02441 12 3.02441C9.41414 3.02441 6.93419 4.05164 5.10571 5.88012C3.27723 7.7086 2.25 10.1886 2.25 12.7744C2.25 15.3603 3.27723 17.8402 5.10571 19.6687C6.93419 21.4972 9.41414 22.5244 12 22.5244ZM12 24.0244C14.9837 24.0244 17.8452 22.8391 19.955 20.7294C22.0647 18.6196 23.25 15.7581 23.25 12.7744C23.25 9.79073 22.0647 6.92925 19.955 4.81946C17.8452 2.70968 14.9837 1.52441 12 1.52441C9.01631 1.52441 6.15483 2.70968 4.04505 4.81946C1.93526 6.92925 0.75 9.79073 0.75 12.7744C0.75 15.7581 1.93526 18.6196 4.04505 20.7294C6.15483 22.8391 9.01631 24.0244 12 24.0244Z" fill="black" fill-opacity="0.45"/>
<path d="M9.00004 1.5C9.00004 1.10218 9.15807 0.720644 9.43938 0.43934C9.72068 0.158035 10.1022 0 10.5 0L13.5 0C13.8979 0 14.2794 0.158035 14.5607 0.43934C14.842 0.720644 15 1.10218 15 1.5C15 1.89782 14.842 2.27936 14.5607 2.56066C14.2794 2.84196 13.8979 3 13.5 3H10.5C10.1022 3 9.72068 2.84196 9.43938 2.56066C9.15807 2.27936 9.00004 1.89782 9.00004 1.5ZM10.41 11.16L17.835 6.915L13.59 14.34L6.16504 18.585L10.41 11.16Z" fill="black" fill-opacity="0.45" />
</g>
<defs>
<clipPath id="clip0_748_10919">
<rect width="24" height="24" fill="white"/>
</clipPath>
</defs>
</svg>
