<svg width="20" height="20" viewBox="0 0 20 20" fill="none" xmlns="http://www.w3.org/2000/svg">
<path fill-rule="evenodd" clip-rule="evenodd" d="M4.175 3.7425C4.51875 3.32 5.025 3.125 5.5175 3.125H14.4825C14.9738 3.125 15.48 3.32 15.825 3.7425C16.5475 4.6275 18.125 6.91 18.125 10C18.125 13.09 16.5475 15.3712 15.825 16.2575C15.48 16.68 14.975 16.875 14.4825 16.875H5.5175C5.025 16.875 4.51875 16.68 4.175 16.2575C3.4525 15.3712 1.875 13.09 1.875 10C1.875 6.91 3.4525 4.62875 4.175 3.7425ZM5.5175 4.375C5.4474 4.37168 5.37744 4.38411 5.31276 4.41136C5.24809 4.43861 5.19034 4.48001 5.14375 4.5325C4.49875 5.32375 3.125 7.32875 3.125 10C3.125 12.6713 4.49875 14.675 5.14375 15.4675C5.21875 15.5587 5.3475 15.625 5.51875 15.625H14.4812C14.6525 15.625 14.7812 15.5587 14.8563 15.4675C15.5013 14.6762 16.875 12.6713 16.875 10C16.875 7.32875 15.5013 5.325 14.8563 4.5325C14.8095 4.47984 14.7516 4.43835 14.6867 4.41108C14.6218 4.38382 14.5516 4.37149 14.4812 4.375H5.51875H5.5175Z" fill="white" fill-opacity="0.85"/>
<path fill-rule="evenodd" clip-rule="evenodd" d="M7.5 6.875C7.66576 6.875 7.82473 6.94085 7.94194 7.05806C8.05915 7.17527 8.125 7.33424 8.125 7.5V9.375C8.125 9.54076 8.05915 9.69973 7.94194 9.81694C7.82473 9.93415 7.66576 10 7.5 10C7.33424 10 7.17527 9.93415 7.05806 9.81694C6.94085 9.69973 6.875 9.54076 6.875 9.375V7.5C6.875 7.33424 6.94085 7.17527 7.05806 7.05806C7.17527 6.94085 7.33424 6.875 7.5 6.875ZM12.5 6.875C12.6658 6.875 12.8247 6.94085 12.9419 7.05806C13.0592 7.17527 13.125 7.33424 13.125 7.5V9.375C13.125 9.54076 13.0592 9.69973 12.9419 9.81694C12.8247 9.93415 12.6658 10 12.5 10C12.3342 10 12.1753 9.93415 12.0581 9.81694C11.9408 9.69973 11.875 9.54076 11.875 9.375V7.5C11.875 7.33424 11.9408 7.17527 12.0581 7.05806C12.1753 6.94085 12.3342 6.875 12.5 6.875Z" fill="white" fill-opacity="0.85"/>
<path d="M8.75 12.5V13.75H11.25V12.5C11.25 12.1685 11.1183 11.8505 10.8839 11.6161C10.6495 11.3817 10.3315 11.25 10 11.25C9.66848 11.25 9.35054 11.3817 9.11612 11.6161C8.8817 11.8505 8.75 12.1685 8.75 12.5Z" fill="black"/>
</svg>
