<svg width="98" height="60" viewBox="0 0 98 60" fill="none" xmlns="http://www.w3.org/2000/svg">
<rect width="97.2076" height="59.5074" transform="translate(0.39621 0.246338)" fill="white" fill-opacity="0.01"/>
<path opacity="0.8" fill-rule="evenodd" clip-rule="evenodd" d="M19.914 11.3949C20.9136 8.25092 21.8438 6.29342 22.7032 5.52167C25.0831 3.38567 28.3736 4.54817 29.0732 4.71467C31.5307 5.30117 30.7317 1.44167 32.8402 0.657167C34.2453 0.134417 35.401 0.773417 36.3079 2.57417C37.1107 0.894167 38.3342 0.124667 39.9783 0.261917C42.4449 0.469667 43.3081 8.75792 46.6974 6.94367C50.0874 5.12867 54.2434 4.71392 56.0187 7.41092C56.4024 7.99442 56.5494 7.08917 59.1592 3.99842C61.769 0.906917 64.3713 -0.455083 69.71 1.34492C72.1374 2.16242 74.1336 4.37867 75.7008 7.99292C75.7008 13.1514 79.5153 16.2054 87.1427 17.1527C98.5854 18.5739 89.7035 30.8132 75.7008 34.3974C61.6974 37.9824 29.4577 39.9174 11.9624 30.8604C0.298882 24.8237 2.9494 18.3347 19.9132 11.3949H19.914Z" fill="url(#paint0_linear_1063_33473)"/>
<path d="M48.6054 56.9799C60.2574 56.9799 69.7032 54.8047 69.7032 52.1214C69.7032 49.4382 60.2574 47.2629 48.6054 47.2629C36.9533 47.2629 27.5075 49.4382 27.5075 52.1214C27.5075 54.8047 36.9533 56.9799 48.6054 56.9799Z" fill="url(#paint1_linear_1063_33473)"/>
<path opacity="0.675" fill-rule="evenodd" clip-rule="evenodd" d="M84.2246 58.1837C68.3614 62.1422 14.2149 57.6144 8.45174 55.5467C5.64668 54.5394 3.11828 52.6457 0.86729 49.8647C0.615355 49.5537 0.456998 49.1782 0.410518 48.7815C0.364038 48.3848 0.431333 47.9831 0.604625 47.6228C0.777918 47.2625 1.05014 46.9584 1.38982 46.7455C1.72951 46.5327 2.1228 46.4198 2.52424 46.4199H97.1425C99.1063 51.6234 94.8003 55.5444 84.2246 58.1837Z" fill="url(#paint2_linear_1063_33473)"/>
<path d="M64.795 39.1006L57.5799 30.7066C57.4093 30.5064 57.1972 30.3451 56.9582 30.2338C56.7193 30.1225 56.459 30.0638 56.1951 30.0616H40.6809C40.1487 30.0616 39.6429 30.3046 39.2961 30.7066L32.0811 39.1006V43.7086H64.795V39.1006Z" fill="url(#paint3_linear_1063_33473)"/>
<path d="M62.7505 43.8781L56.4356 36.5671C56.2829 36.3945 56.0947 36.2566 55.8837 36.1628C55.6727 36.0689 55.4439 36.0214 55.2128 36.0234H41.6632C41.1981 36.0234 40.7435 36.2154 40.4405 36.5671L34.1255 43.8781V47.8936H62.7505V43.8781Z" fill="url(#paint4_linear_1063_33473)"/>
<path d="M64.795 48.9894C64.795 49.6291 64.5055 50.2044 64.0486 50.5899L63.9559 50.6649C63.5937 50.938 63.1515 51.0855 62.697 51.0849H34.1798C33.9219 51.0849 33.6754 51.0384 33.4478 50.9529L33.3347 50.9079C32.9616 50.7427 32.6447 50.4736 32.4222 50.133C32.1997 49.7923 32.0812 49.3949 32.0811 48.9886V39.1509H40.0183C40.895 39.1509 41.6014 39.8686 41.6014 40.7394V40.7506C41.6014 41.6221 42.316 42.3249 43.1927 42.3249H53.6833C54.1047 42.3245 54.5088 42.158 54.807 41.8618C55.1053 41.5656 55.2734 41.1639 55.2746 40.7446C55.2746 39.8701 55.9817 39.1509 56.8577 39.1509H64.7957L64.795 48.9894Z" fill="url(#paint5_linear_1063_33473)"/>
<defs>
<linearGradient id="paint0_linear_1063_33473" x1="50.664" y1="27.9589" x2="50.664" y2="-6.30377" gradientUnits="userSpaceOnUse">
<stop stop-color="#DEDEDE" stop-opacity="0"/>
<stop offset="1" stop-color="#A9A9A9" stop-opacity="0.3"/>
</linearGradient>
<linearGradient id="paint1_linear_1063_33473" x1="46.407" y1="56.9799" x2="46.407" y2="47.2629" gradientUnits="userSpaceOnUse">
<stop stop-color="white" stop-opacity="0"/>
<stop offset="1" stop-color="#96A1C5" stop-opacity="0.373"/>
</linearGradient>
<linearGradient id="paint2_linear_1063_33473" x1="49" y1="59.7537" x2="49" y2="43.7965" gradientUnits="userSpaceOnUse">
<stop stop-color="white" stop-opacity="0"/>
<stop offset="1" stop-color="#919191" stop-opacity="0.15"/>
</linearGradient>
<linearGradient id="paint3_linear_1063_33473" x1="48.438" y1="30.0616" x2="48.438" y2="36.196" gradientUnits="userSpaceOnUse">
<stop stop-color="#5389F5"/>
<stop offset="1" stop-color="#416FDC"/>
</linearGradient>
<linearGradient id="paint4_linear_1063_33473" x1="52.258" y1="47.8936" x2="52.258" y2="35.3923" gradientUnits="userSpaceOnUse">
<stop stop-color="#DCE9FF"/>
<stop offset="1" stop-color="#B6CFFF"/>
</linearGradient>
<linearGradient id="paint5_linear_1063_33473" x1="48.4384" y1="39.1509" x2="48.4384" y2="51.0849" gradientUnits="userSpaceOnUse">
<stop stop-color="#7CA5F7"/>
<stop offset="1" stop-color="#C4D6FC"/>
</linearGradient>
</defs>
</svg>
