<svg width="16" height="16" viewBox="0 0 16 16" fill="none" xmlns="http://www.w3.org/2000/svg">
<g clip-path="url(#clip0_910_1536)">
<path fill-rule="evenodd" clip-rule="evenodd" d="M8 3.5C8.13261 3.5 8.25979 3.55268 8.35355 3.64645C8.44732 3.74021 8.5 3.86739 8.5 4V8C8.5 8.13261 8.44732 8.25979 8.35355 8.35355C8.25979 8.44732 8.13261 8.5 8 8.5H4C3.86739 8.5 3.74021 8.44732 3.64645 8.35355C3.55268 8.25979 3.5 8.13261 3.5 8C3.5 7.86739 3.55268 7.74021 3.64645 7.64645C3.74021 7.55268 3.86739 7.5 4 7.5H7.5V4C7.5 3.86739 7.55268 3.74021 7.64645 3.64645C7.74021 3.55268 7.86739 3.5 8 3.5Z" fill="white"/>
<path fill-rule="evenodd" clip-rule="evenodd" d="M7.5 8C7.5 7.86739 7.55268 7.74021 7.64645 7.64645C7.74021 7.55268 7.86739 7.5 8 7.5H12C12.1326 7.5 12.2598 7.55268 12.3536 7.64645C12.4473 7.74021 12.5 7.86739 12.5 8C12.5 8.13261 12.4473 8.25979 12.3536 8.35355C12.2598 8.44732 12.1326 8.5 12 8.5H8.5V12C8.5 12.1326 8.44732 12.2598 8.35355 12.3536C8.25979 12.4473 8.13261 12.5 8 12.5C7.86739 12.5 7.74021 12.4473 7.64645 12.3536C7.55268 12.2598 7.5 12.1326 7.5 12V8Z" fill="white"/>
<path fill-rule="evenodd" clip-rule="evenodd" d="M8 15C9.85652 15 11.637 14.2625 12.9497 12.9497C14.2625 11.637 15 9.85652 15 8C15 6.14348 14.2625 4.36301 12.9497 3.05025C11.637 1.7375 9.85652 1 8 1C6.14348 1 4.36301 1.7375 3.05025 3.05025C1.7375 4.36301 1 6.14348 1 8C1 9.85652 1.7375 11.637 3.05025 12.9497C4.36301 14.2625 6.14348 15 8 15V15ZM8 16C10.1217 16 12.1566 15.1571 13.6569 13.6569C15.1571 12.1566 16 10.1217 16 8C16 5.87827 15.1571 3.84344 13.6569 2.34315C12.1566 0.842855 10.1217 0 8 0C5.87827 0 3.84344 0.842855 2.34315 2.34315C0.842855 3.84344 0 5.87827 0 8C0 10.1217 0.842855 12.1566 2.34315 13.6569C3.84344 15.1571 5.87827 16 8 16V16Z" fill="white"/>
</g>
<defs>
<clipPath id="clip0_910_1536">
<rect width="16" height="16" fill="white"/>
</clipPath>
</defs>
</svg>
