<svg width="16" height="16" viewBox="0 0 16 16" fill="none" xmlns="http://www.w3.org/2000/svg">
<g clip-path="url(#clip0_910_1939)">
<path fill-rule="evenodd" clip-rule="evenodd" d="M3.17007 6.70598C3.36284 5.98613 3.71408 5.31848 4.19809 4.75185C4.68211 4.18522 5.28666 3.73395 5.96753 3.43105C6.6484 3.12814 7.38837 2.98126 8.13331 3.00114C8.87826 3.02103 9.60933 3.20718 10.2731 3.54598C10.3316 3.57579 10.3955 3.59377 10.461 3.5989C10.5265 3.60402 10.5924 3.59619 10.6549 3.57586C10.7174 3.55552 10.7753 3.52308 10.8253 3.48037C10.8752 3.43767 10.9163 3.38555 10.9461 3.32698C10.9759 3.26841 10.9939 3.20454 10.999 3.13902C11.0041 3.0735 10.9963 3.00761 10.976 2.94512C10.9556 2.88263 10.9232 2.82475 10.8805 2.77479C10.8378 2.72484 10.7856 2.68379 10.7271 2.65398C9.464 2.00948 8.01348 1.83315 6.63279 2.15627C5.25209 2.47939 4.03045 3.28107 3.18455 4.41913C2.33864 5.55718 1.92313 6.95806 2.01173 8.37329C2.10032 9.78852 2.68729 11.1266 3.66852 12.1503C4.64975 13.174 5.96183 13.8171 7.37205 13.9655C8.78226 14.1139 10.1995 13.758 11.3723 12.961C12.5451 12.1641 13.3978 10.9774 13.7791 9.61166C14.1603 8.24587 14.0455 6.78919 13.4551 5.49998C13.3998 5.3793 13.2988 5.28554 13.1744 5.23931C13.0499 5.19308 12.9122 5.19818 12.7916 5.25348C12.6709 5.30877 12.5771 5.40974 12.5309 5.53417C12.4847 5.6586 12.4898 5.7963 12.5451 5.91698C12.8794 6.64643 13.0332 7.44563 12.9936 8.24706C12.954 9.04849 12.722 9.82861 12.3174 10.5215C11.9127 11.2144 11.3473 11.7998 10.6688 12.2281C9.99024 12.6565 9.21859 12.9152 8.41901 12.9825C7.61942 13.0498 6.81539 12.9237 6.07482 12.6148C5.33425 12.3058 4.67891 11.8232 4.16415 11.2077C3.64939 10.5922 3.29033 9.86178 3.11731 9.07825C2.94429 8.29471 2.96239 7.48104 3.17007 6.70598V6.70598Z" fill="black" fill-opacity="0.65"/>
<path fill-rule="evenodd" clip-rule="evenodd" d="M8.14689 0.146027C8.24066 0.0522915 8.36781 -0.000366211 8.50039 -0.000366211C8.63298 -0.000366211 8.76013 0.0522915 8.85389 0.146027L11.3539 2.64603C11.4005 2.69247 11.4374 2.74765 11.4626 2.80839C11.4878 2.86914 11.5008 2.93426 11.5008 3.00003C11.5008 3.06579 11.4878 3.13092 11.4626 3.19166C11.4374 3.25241 11.4005 3.30758 11.3539 3.35403L8.85389 5.85403C8.80741 5.90045 8.75223 5.93726 8.69152 5.96236C8.6308 5.98746 8.56574 6.00035 8.50004 6.00031C8.43434 6.00026 8.3693 5.98727 8.30862 5.96209C8.24794 5.9369 8.19282 5.90001 8.14639 5.85353C8.05264 5.75964 8.00002 5.63236 8.00012 5.49967C8.00016 5.43398 8.01315 5.36893 8.03833 5.30825C8.06352 5.24757 8.10041 5.19245 8.14689 5.14603L10.2929 3.00003L8.14689 0.854027C8.10033 0.807581 8.06339 0.752406 8.03818 0.691661C8.01297 0.630916 8 0.565794 8 0.500027C8 0.43426 8.01297 0.369139 8.03818 0.308393C8.06339 0.247648 8.10033 0.192473 8.14689 0.146027Z" fill="black" fill-opacity="0.65"/>
</g>
<defs>
<clipPath id="clip0_910_1939">
<rect width="16" height="16" fill="white"/>
</clipPath>
</defs>
</svg>
