<svg width="40" height="40" viewBox="0 0 40 40" fill="none" xmlns="http://www.w3.org/2000/svg">
<path fill-rule="evenodd" clip-rule="evenodd" d="M7.76256 29.0968C7.07915 29.7802 7.07915 30.8883 7.76256 31.5717C8.44598 32.2551 9.55402 32.2551 10.2374 31.5717L19.4298 22.3793L28.6222 31.5717C29.3056 32.2552 30.4137 32.2552 31.0971 31.5717C31.7805 30.8883 31.7805 29.7803 31.0971 29.0969L21.9047 19.9045L31.0971 10.712C31.7805 10.0286 31.7805 8.92059 31.0971 8.23717C30.4137 7.55376 29.3056 7.55376 28.6222 8.23717L19.4298 17.4296L10.2374 8.23722C9.55403 7.55381 8.44599 7.55381 7.76257 8.23722C7.07916 8.92064 7.07916 10.0287 7.76257 10.7121L16.9549 19.9045L7.76256 29.0968Z" fill="white" fill-opacity="0.65"/>
</svg>
