<svg width="21" height="20" viewBox="0 0 21 20" fill="none" xmlns="http://www.w3.org/2000/svg">
<path fill-rule="evenodd" clip-rule="evenodd" d="M1.21004 17.2776C0.663304 17.8244 0.663304 18.7108 1.21004 19.2575C1.75677 19.8043 2.6432 19.8043 3.18994 19.2575L10.5438 11.9036L17.8978 19.2576C18.4445 19.8043 19.3309 19.8043 19.8777 19.2576C20.4244 18.7108 20.4244 17.8244 19.8777 17.2777L12.5237 9.92373L19.8777 2.56981C20.4244 2.02307 20.4244 1.13664 19.8777 0.589906C19.3309 0.0431723 18.4445 0.0431713 17.8978 0.589905L10.5438 7.94383L3.18995 0.589948C2.64321 0.0432143 1.75678 0.043214 1.21005 0.589948C0.663312 1.13668 0.663311 2.02311 1.21005 2.56985L8.56393 9.92373L1.21004 17.2776Z" fill="white"/>
</svg>
