<svg width="15" height="14" viewBox="0 0 15 14" fill="none" xmlns="http://www.w3.org/2000/svg">
<g clip-path="url(#clip0_1189_37189)">
<rect width="14" height="14" transform="translate(0.5)" fill="white" fill-opacity="0.01"/>
<g clip-path="url(#clip1_1189_37189)">
<path d="M0.756188 0.255653C0.920275 0.0916154 1.14279 -0.000535573 1.37481 -0.000535573C1.60683 -0.000535573 1.82935 0.0916154 1.99344 0.255653L7.49981 5.76203L13.0062 0.255653C13.0869 0.172081 13.1835 0.105422 13.2902 0.0595638C13.397 0.013706 13.5118 -0.010432 13.628 -0.0114416C13.7441 -0.0124512 13.8594 0.00968783 13.9669 0.0536836C14.0744 0.0976794 14.1721 0.162651 14.2543 0.244807C14.3364 0.326963 14.4014 0.424659 14.4454 0.532193C14.4894 0.639727 14.5115 0.754947 14.5105 0.871129C14.5095 0.987311 14.4854 1.10213 14.4395 1.20888C14.3937 1.31563 14.327 1.41219 14.2434 1.4929L8.73706 6.99928L14.2434 12.5057C14.4028 12.6707 14.491 12.8917 14.489 13.1211C14.487 13.3506 14.395 13.57 14.2328 13.7322C14.0705 13.8945 13.8511 13.9865 13.6217 13.9885C13.3922 13.9905 13.1712 13.9023 13.0062 13.7429L7.49981 8.23653L1.99344 13.7429C1.82841 13.9023 1.60738 13.9905 1.37796 13.9885C1.14854 13.9865 0.929079 13.8945 0.766847 13.7322C0.604615 13.57 0.512592 13.3506 0.510598 13.1211C0.508605 12.8917 0.5968 12.6707 0.756188 12.5057L6.26256 6.99928L0.756188 1.4929C0.592151 1.32882 0.5 1.1063 0.5 0.874278C0.5 0.642259 0.592151 0.419739 0.756188 0.255653Z" fill="white"/>
</g>
</g>
<defs>
<clipPath id="clip0_1189_37189">
<rect width="14" height="14" fill="white" transform="translate(0.5)"/>
</clipPath>
<clipPath id="clip1_1189_37189">
<rect width="14" height="14" fill="white" transform="translate(0.5)"/>
</clipPath>
</defs>
</svg>
