<svg width="20" height="20" viewBox="0 0 20 20" fill="none" xmlns="http://www.w3.org/2000/svg">
<path d="M5.75625 3.125V2.5V3.125ZM4.5125 4.5L5.135 4.44625V4.4375L4.5125 4.5ZM8.75 3.125H9.375C9.375 2.95924 9.30915 2.80027 9.19194 2.68306C9.07473 2.56585 8.91576 2.5 8.75 2.5V3.125ZM7.905 4.9425L8.285 5.43875L7.905 4.9425ZM12.095 4.9425L11.715 5.43875L12.095 4.9425ZM11.25 3.125V2.5C11.0842 2.5 10.9253 2.56585 10.8081 2.68306C10.6908 2.80027 10.625 2.95924 10.625 3.125H11.25ZM15.4875 4.5L14.865 4.4375V4.44625L15.4875 4.5ZM15.125 8.75L14.5025 8.69625C14.4951 8.78252 14.5056 8.8694 14.5335 8.95137C14.5614 9.03334 14.606 9.10863 14.6646 9.17244C14.7231 9.23626 14.7942 9.28722 14.8735 9.32209C14.9528 9.35696 15.0384 9.37497 15.125 9.375V8.75ZM17.4425 7.905L17.9387 8.285L17.4425 7.905ZM17.4425 12.095L17.9387 11.715L17.4425 12.095ZM15.125 11.25V10.625C15.0385 10.625 14.953 10.643 14.8738 10.6778C14.7947 10.7126 14.7236 10.7635 14.6651 10.8271C14.6066 10.8908 14.5619 10.9659 14.5339 11.0478C14.5059 11.1296 14.4952 11.2163 14.5025 11.3025L15.125 11.25ZM15.4875 15.5L14.865 15.5538V15.5625L15.4875 15.5ZM11.25 16.875H10.625C10.625 17.0408 10.6908 17.1997 10.8081 17.3169C10.9253 17.4342 11.0842 17.5 11.25 17.5V16.875ZM12.095 15.0575L11.715 14.5613L12.095 15.0575ZM7.905 15.0575L8.285 14.5613L7.905 15.0575ZM8.75 16.875V17.5C8.91576 17.5 9.07473 17.4342 9.19194 17.3169C9.30915 17.1997 9.375 17.0408 9.375 16.875H8.75ZM5.75625 16.875V16.25V16.875ZM4.5125 15.5L5.135 15.5625V15.5538L4.5125 15.5ZM4.875 11.25L5.4975 11.3025C5.50476 11.2163 5.49407 11.1296 5.46608 11.0478C5.4381 10.9659 5.39345 10.8908 5.33494 10.8271C5.27643 10.7635 5.20534 10.7126 5.12617 10.6778C5.047 10.643 4.96148 10.625 4.875 10.625V11.25ZM2.5575 12.095L2.06125 11.715L2.5575 12.095ZM2.5575 7.905L2.06125 8.285L2.5575 7.905ZM4.875 8.75V9.375C4.96159 9.37497 5.04723 9.35696 5.12649 9.32209C5.20575 9.28722 5.2769 9.23626 5.33543 9.17244C5.39396 9.10863 5.43859 9.03334 5.46649 8.95137C5.49439 8.8694 5.50495 8.78252 5.4975 8.69625L4.875 8.75ZM5.75625 2.5C5.49415 2.49991 5.23495 2.55477 4.99536 2.66104C4.75578 2.76731 4.54113 2.92263 4.36528 3.11697C4.18943 3.31132 4.05627 3.54037 3.97441 3.78935C3.89255 4.03834 3.86379 4.30172 3.89 4.5625L5.13375 4.4375C5.12501 4.35054 5.13461 4.26271 5.16192 4.17969C5.18923 4.09666 5.23365 4.02029 5.29232 3.9555C5.35098 3.89071 5.42258 3.83895 5.50249 3.80355C5.5824 3.76816 5.66885 3.74991 5.75625 3.75V2.5ZM8.75 2.5H5.75625V3.75H8.75V2.5ZM9.375 3.6025V3.125H8.125V3.6025H9.375ZM8.285 5.43875C8.75375 5.08 9.375 4.4725 9.375 3.6025H8.125C8.125 3.84625 7.94125 4.1275 7.525 4.44625L8.285 5.43875ZM8.125 5.625L8.12625 5.6175C8.12995 5.60651 8.13499 5.59601 8.14125 5.58625C8.17988 5.52882 8.22858 5.47884 8.285 5.43875L7.525 4.44625C7.1825 4.70875 6.875 5.10625 6.875 5.625H8.125ZM10 6.25C9.38625 6.25 8.86 6.125 8.5125 5.95C8.38485 5.89203 8.26977 5.80965 8.17375 5.7075C8.15302 5.6843 8.13652 5.65765 8.125 5.62875V5.625H6.875C6.875 6.335 7.43375 6.80875 7.9525 7.0675C8.50875 7.34625 9.23375 7.5 10 7.5V6.25ZM11.875 5.625V5.62875C11.8636 5.65809 11.8471 5.68517 11.8263 5.70875C11.7305 5.81032 11.6158 5.89226 11.4888 5.95C11.1375 6.125 10.6125 6.25 10 6.25V7.5C10.7662 7.5 11.4912 7.34625 12.0475 7.0675C12.5662 6.80875 13.125 6.335 13.125 5.625H11.875ZM11.715 5.4375C11.7962 5.5 11.8388 5.5525 11.8588 5.58625C11.8688 5.6025 11.8712 5.6125 11.8737 5.6175L11.875 5.625H13.125C13.125 5.10625 12.8175 4.70875 12.475 4.44625L11.715 5.43875V5.4375ZM10.625 3.60375C10.625 4.47375 11.2463 5.08125 11.715 5.44L12.475 4.4475C12.0587 4.12875 11.875 3.8475 11.875 3.60375H10.625ZM10.625 3.12625V3.60375H11.875V3.125H10.625V3.12625ZM14.2438 2.50125H11.25V3.75125H14.2438V2.5V2.50125ZM16.11 4.56375C16.1364 4.30287 16.1078 4.03935 16.026 3.79022C15.9442 3.54109 15.8111 3.31188 15.6352 3.11739C15.4594 2.92291 15.2446 2.76747 15.005 2.66113C14.7653 2.55478 14.506 2.49989 14.2438 2.5V3.75C14.3312 3.74991 14.4176 3.76816 14.4975 3.80355C14.5774 3.83895 14.649 3.89071 14.7077 3.9555C14.7663 4.02029 14.8108 4.09666 14.8381 4.17969C14.8654 4.26271 14.875 4.35054 14.8662 4.4375L16.11 4.5625V4.56375ZM15.7475 8.80375L16.11 4.55375L14.865 4.4475L14.5025 8.6975L15.7475 8.80375ZM16.1025 8.12625H15.125V9.37625H16.1025V8.12625ZM16.9463 7.52625C16.6275 7.9425 16.3463 8.12625 16.1025 8.12625V9.37625C16.9725 9.37625 17.58 8.755 17.9387 8.28625L16.9463 7.52625ZM18.125 6.87625C17.6063 6.87625 17.2087 7.18375 16.9463 7.52625L17.9387 8.28625C17.9788 8.22983 18.0288 8.18113 18.0863 8.1425C18.096 8.13624 18.1065 8.1312 18.1175 8.1275L18.125 8.125V6.875V6.87625ZM20 10C20 9.23375 19.8463 8.50875 19.5675 7.9525C19.3088 7.43375 18.835 6.875 18.125 6.875V8.125H18.1287L18.1412 8.12875C18.1653 8.14068 18.1876 8.15582 18.2075 8.17375C18.3095 8.26941 18.3919 8.38405 18.45 8.51125C18.625 8.86125 18.75 9.38625 18.75 10H20ZM18.125 13.125C18.835 13.125 19.3088 12.5662 19.5675 12.0475C19.8463 11.4912 20 10.7662 20 10H18.75C18.75 10.6138 18.625 11.14 18.45 11.4875C18.392 11.6151 18.3096 11.7302 18.2075 11.8263C18.1843 11.847 18.1576 11.8635 18.1287 11.875H18.125V13.125ZM16.9463 12.475C17.2087 12.8175 17.6063 13.125 18.125 13.125V11.875L18.1175 11.8737C18.1065 11.8701 18.096 11.865 18.0863 11.8588C18.0288 11.8201 17.9788 11.7714 17.9387 11.715L16.9463 12.475ZM16.1025 11.875C16.3463 11.875 16.6275 12.0587 16.9463 12.475L17.9387 11.715C17.58 11.2463 16.9725 10.625 16.1025 10.625V11.875ZM15.125 11.875H16.1025V10.625H15.125V11.875ZM16.11 15.4475L15.7475 11.1975L14.5025 11.3025L14.865 15.5538L16.11 15.4475ZM14.2438 17.5C14.5058 17.5001 14.765 17.4452 15.0046 17.339C15.2442 17.2327 15.4589 17.0774 15.6347 16.883C15.8106 16.6887 15.9437 16.4596 16.0256 16.2106C16.1075 15.9617 16.1362 15.6983 16.11 15.4375L14.8662 15.5625C14.875 15.6495 14.8654 15.7373 14.8381 15.8203C14.8108 15.9033 14.7663 15.9797 14.7077 16.0445C14.649 16.1093 14.5774 16.161 14.4975 16.1964C14.4176 16.2318 14.3312 16.2501 14.2438 16.25V17.5ZM11.25 17.5H14.2438V16.25H11.25V17.5ZM11.875 16.875V16.3975H10.625V16.875H11.875ZM11.875 16.3975C11.875 16.1538 12.0587 15.8725 12.475 15.5538L11.715 14.5613C11.2463 14.92 10.625 15.5275 10.625 16.3975H11.875ZM12.475 15.5538C12.8175 15.2913 13.125 14.8938 13.125 14.375H11.875L11.8737 14.3825C11.8701 14.3935 11.865 14.404 11.8588 14.4137C11.8201 14.4712 11.7714 14.5212 11.715 14.5613L12.475 15.5538ZM13.125 14.375C13.125 13.665 12.5662 13.1912 12.0475 12.9325C11.4912 12.6537 10.7662 12.5 10 12.5V13.75C10.615 13.75 11.14 13.875 11.4875 14.05C11.6625 14.1375 11.77 14.225 11.8263 14.2925C11.847 14.3157 11.8635 14.3424 11.875 14.3713V14.375H13.125ZM10 12.5C9.23375 12.5 8.50875 12.6537 7.9525 12.9325C7.43375 13.1912 6.875 13.665 6.875 14.375H8.125V14.3713L8.12875 14.3588C8.14034 14.3345 8.15551 14.3122 8.17375 14.2925C8.26938 14.1905 8.38403 14.1081 8.51125 14.05C8.8625 13.875 9.3875 13.75 10 13.75V12.5ZM6.875 14.375C6.875 14.8938 7.1825 15.2913 7.525 15.5538L8.285 14.5613C8.22858 14.5212 8.17988 14.4712 8.14125 14.4137C8.13499 14.404 8.12995 14.3935 8.12625 14.3825L8.125 14.375H6.875ZM7.525 15.5538C7.94125 15.8725 8.125 16.1538 8.125 16.3975H9.375C9.375 15.5275 8.75375 14.92 8.285 14.5613L7.525 15.5538ZM8.125 16.3975V16.875H9.375V16.3975H8.125ZM5.75625 17.5H8.75V16.25H5.75625V17.5ZM3.89 15.4375C3.86379 15.6983 3.89255 15.9617 3.97441 16.2106C4.05627 16.4596 4.18943 16.6887 4.36528 16.883C4.54113 17.0774 4.75578 17.2327 4.99536 17.339C5.23495 17.4452 5.49415 17.5001 5.75625 17.5V16.25C5.66885 16.2501 5.5824 16.2318 5.50249 16.1964C5.42258 16.161 5.35098 16.1093 5.29232 16.0445C5.23365 15.9797 5.18923 15.9033 5.16192 15.8203C5.13461 15.7373 5.12501 15.6495 5.13375 15.5625L3.89 15.4375ZM4.2525 11.1962L3.89 15.4475L5.135 15.5538L5.4975 11.3038L4.2525 11.1962ZM3.8975 11.875H4.875V10.625H3.8975V11.875ZM3.05375 12.475C3.3725 12.0587 3.65375 11.875 3.8975 11.875V10.625C3.0275 10.625 2.42 11.2463 2.06125 11.715L3.05375 12.475ZM1.875 13.125C2.39375 13.125 2.79125 12.8175 3.05375 12.475L2.06125 11.715C2.02116 11.7714 1.97119 11.8201 1.91375 11.8588C1.90399 11.865 1.8935 11.8701 1.8825 11.8737L1.875 11.875V13.125ZM0 10C0 10.7662 0.15375 11.4912 0.4325 12.0475C0.69125 12.5662 1.165 13.125 1.875 13.125V11.875H1.87125C1.84191 11.8636 1.81483 11.8471 1.79125 11.8263C1.68968 11.7305 1.60774 11.6158 1.55 11.4888C1.375 11.1375 1.25 10.6125 1.25 10H0ZM1.875 6.875C1.165 6.875 0.69125 7.43375 0.4325 7.9525C0.15375 8.50875 0 9.23375 0 10H1.25C1.25 9.385 1.375 8.86 1.55 8.5125C1.60797 8.38485 1.69035 8.26977 1.7925 8.17375C1.8157 8.15302 1.84235 8.13652 1.87125 8.125H1.875V6.875ZM3.05375 7.525C2.79125 7.1825 2.39375 6.875 1.875 6.875V8.125L1.8825 8.12625C1.8935 8.12994 1.90399 8.13497 1.91375 8.14125C1.9475 8.16125 1.99875 8.20375 2.06125 8.285L3.05375 7.525ZM3.8975 8.125C3.65375 8.125 3.3725 7.94125 3.05375 7.525L2.06125 8.285C2.42 8.75375 3.0275 9.375 3.8975 9.375V8.125ZM4.875 8.125H3.8975V9.375H4.875V8.125ZM3.89 4.5525L4.2525 8.8025L5.4975 8.69625L5.135 4.44625L3.89 4.5525Z" fill="white" fill-opacity="0.85"/>
</svg>
