<svg width="17" height="16" viewBox="0 0 17 16" fill="none" xmlns="http://www.w3.org/2000/svg">
<g clip-path="url(#clip0_1387_39851)">
<rect width="16" height="16" transform="translate(0.5)" fill="white" fill-opacity="0.01"/>
<path d="M3.49951 9.49915C3.10169 9.49915 2.72016 9.34111 2.43885 9.05981C2.15755 8.7785 1.99951 8.39697 1.99951 7.99915C1.99951 7.60132 2.15755 7.21979 2.43885 6.93849C2.72016 6.65718 3.10169 6.49915 3.49951 6.49915C3.89734 6.49915 4.27887 6.65718 4.56017 6.93849C4.84148 7.21979 4.99951 7.60132 4.99951 7.99915C4.99951 8.39697 4.84148 8.7785 4.56017 9.05981C4.27887 9.34111 3.89734 9.49915 3.49951 9.49915ZM8.49951 9.49915C8.10169 9.49915 7.72016 9.34111 7.43885 9.05981C7.15755 8.7785 6.99951 8.39697 6.99951 7.99915C6.99951 7.60132 7.15755 7.21979 7.43885 6.93849C7.72016 6.65718 8.10169 6.49915 8.49951 6.49915C8.89734 6.49915 9.27887 6.65718 9.56017 6.93849C9.84148 7.21979 9.99951 7.60132 9.99951 7.99915C9.99951 8.39697 9.84148 8.7785 9.56017 9.05981C9.27887 9.34111 8.89734 9.49915 8.49951 9.49915ZM13.4995 9.49915C13.1017 9.49915 12.7202 9.34111 12.4389 9.05981C12.1575 8.7785 11.9995 8.39697 11.9995 7.99915C11.9995 7.60132 12.1575 7.21979 12.4389 6.93849C12.7202 6.65718 13.1017 6.49915 13.4995 6.49915C13.8973 6.49915 14.2789 6.65718 14.5602 6.93849C14.8415 7.21979 14.9995 7.60132 14.9995 7.99915C14.9995 8.39697 14.8415 8.7785 14.5602 9.05981C14.2789 9.34111 13.8973 9.49915 13.4995 9.49915Z" fill="#4AC5FF"/>
</g>
<defs>
<clipPath id="clip0_1387_39851">
<rect width="16" height="16" fill="white" transform="translate(0.5)"/>
</clipPath>
</defs>
</svg>
