<svg width="24" height="24" viewBox="0 0 24 24" fill="none" xmlns="http://www.w3.org/2000/svg">
<path fill-rule="evenodd" clip-rule="evenodd" d="M16.9395 1.93918C17.2208 1.65797 17.6022 1.5 18 1.5C18.3977 1.5 18.7792 1.65797 19.0605 1.93918L22.0605 4.93918C22.3417 5.22047 22.4997 5.60193 22.4997 5.99968C22.4997 6.39743 22.3417 6.77889 22.0605 7.06018L8.5605 20.5602C8.39628 20.7249 8.196 20.8492 7.9755 20.9232L3.4755 22.4232C3.21112 22.5117 2.9273 22.5248 2.6559 22.461C2.38449 22.3971 2.13625 22.2589 1.93903 22.0619C1.7418 21.8648 1.60341 21.6167 1.53937 21.3453C1.47533 21.074 1.48819 20.7901 1.5765 20.5257L3.0765 16.0257C3.1503 15.8046 3.27458 15.6038 3.4395 15.4392L16.9395 1.93918ZM18 2.99968L21 5.99968L7.5 19.4997L3 20.9997L4.5 16.4997L18 2.99968Z" fill="black" fill-opacity="0.45"/>
<path fill-rule="evenodd" clip-rule="evenodd" d="M18.219 9.53075L14.469 5.78075L15.531 4.71875L19.281 8.46875L18.2205 9.53075H18.219ZM4.5 14.9998V15.7498C4.5 15.9487 4.57902 16.1394 4.71967 16.2801C4.86032 16.4207 5.05109 16.4998 5.25 16.4998H6V17.2498C6 17.4487 6.07902 17.6394 6.21967 17.7801C6.36032 17.9207 6.55109 17.9998 6.75 17.9998H7.5V18.7498C7.5 18.9487 7.57902 19.1394 7.71967 19.2801C7.86032 19.4207 8.05109 19.4998 8.25 19.4998H9V17.2498C9 17.0508 8.92098 16.8601 8.78033 16.7194C8.63968 16.5788 8.44891 16.4998 8.25 16.4998H7.5V15.7498C7.5 15.5508 7.42098 15.3601 7.28033 15.2194C7.13968 15.0788 6.94891 14.9998 6.75 14.9998H4.5Z" fill="black" fill-opacity="0.45"/>
</svg>
