<svg width="16" height="16" viewBox="0 0 16 16" fill="none" xmlns="http://www.w3.org/2000/svg">
<g clip-path="url(#clip0_1094_36986)">
<path fill-rule="evenodd" clip-rule="evenodd" d="M2.85366 7.14592C2.80721 7.09935 2.75203 7.06241 2.69129 7.0372C2.63054 7.012 2.56542 6.99902 2.49966 6.99902C2.43389 6.99902 2.36877 7.012 2.30802 7.0372C2.24728 7.06241 2.1921 7.09935 2.14565 7.14592L0.145655 9.14592C0.0517684 9.2398 -0.000976562 9.36714 -0.000976562 9.49992C-0.000976562 9.63269 0.0517684 9.76003 0.145655 9.85392C0.239542 9.9478 0.366879 10.0005 0.499655 10.0005C0.632431 10.0005 0.759768 9.9478 0.853655 9.85392L2.49966 8.20692L4.14566 9.85392C4.23954 9.9478 4.36688 10.0005 4.49966 10.0005C4.63243 10.0005 4.75977 9.9478 4.85366 9.85392C4.94754 9.76003 5.00029 9.63269 5.00029 9.49992C5.00029 9.36714 4.94754 9.2398 4.85366 9.14592L2.85366 7.14592ZM15.8537 6.14592C15.8072 6.09935 15.752 6.06241 15.6913 6.0372C15.6305 6.012 15.5654 5.99902 15.4997 5.99902C15.4339 5.99902 15.3688 6.012 15.308 6.0372C15.2473 6.06241 15.1921 6.09935 15.1457 6.14592L13.4997 7.79292L11.8537 6.14592C11.7598 6.05203 11.6324 5.99929 11.4997 5.99929C11.3669 5.99929 11.2395 6.05203 11.1457 6.14592C11.0518 6.2398 10.999 6.36714 10.999 6.49992C10.999 6.63269 11.0518 6.76003 11.1457 6.85392L13.1457 8.85392C13.1921 8.90048 13.2473 8.93742 13.308 8.96263C13.3688 8.98784 13.4339 9.00081 13.4997 9.00081C13.5654 9.00081 13.6305 8.98784 13.6913 8.96263C13.752 8.93742 13.8072 8.90048 13.8537 8.85392L15.8537 6.85392C15.9002 6.80747 15.9372 6.7523 15.9624 6.69155C15.9876 6.63081 16.0005 6.56568 16.0005 6.49992C16.0005 6.43415 15.9876 6.36903 15.9624 6.30828C15.9372 6.24754 15.9002 6.19236 15.8537 6.14592Z" fill="white"/>
<path fill-rule="evenodd" clip-rule="evenodd" d="M8 2.99978C7.16716 2.99914 6.34738 3.20676 5.61524 3.60374C4.88311 4.00072 4.26185 4.57447 3.808 5.27278C3.73338 5.37858 3.62063 5.45131 3.49347 5.47567C3.36631 5.50003 3.23466 5.47411 3.12623 5.40337C3.01779 5.33264 2.94102 5.2226 2.91207 5.0964C2.88312 4.97021 2.90424 4.83771 2.971 4.72678C3.67649 3.64262 4.71346 2.81547 5.92732 2.36864C7.14119 1.9218 8.46695 1.87921 9.707 2.24721C10.947 2.61521 12.035 3.37409 12.8086 4.41074C13.5822 5.44739 14.0001 6.70629 14 7.99978C14 8.13252 13.9473 8.25983 13.8534 8.35369C13.7595 8.44755 13.6322 8.50028 13.4995 8.50028C13.3668 8.50028 13.2395 8.44755 13.1456 8.35369C13.0517 8.25983 12.999 8.13252 12.999 7.99978C12.999 6.6737 12.4722 5.40193 11.5345 4.46425C10.5969 3.52657 9.32508 2.99978 7.999 2.99978H8ZM2.5 7.49978C2.63261 7.49978 2.75979 7.55246 2.85355 7.64623C2.94732 7.74 3 7.86718 3 7.99978C2.99963 9.07799 3.3478 10.1274 3.99259 10.9916C4.63737 11.8558 5.54423 12.4883 6.57791 12.795C7.61158 13.1017 8.7167 13.066 9.72843 12.6933C10.7402 12.3205 11.6043 11.6308 12.192 10.7268C12.2266 10.6692 12.2725 10.6192 12.3269 10.5798C12.3813 10.5404 12.4431 10.5123 12.5086 10.4973C12.5741 10.4822 12.6419 10.4806 12.7081 10.4923C12.7742 10.5041 12.8373 10.5291 12.8936 10.5658C12.9499 10.6025 12.9982 10.6502 13.0356 10.706C13.073 10.7618 13.0988 10.8245 13.1115 10.8905C13.1241 10.9565 13.1233 11.0244 13.1092 11.0901C13.095 11.1557 13.0677 11.2179 13.029 11.2728C12.3235 12.3569 11.2865 13.1841 10.0727 13.6309C8.85881 14.0778 7.53305 14.1204 6.293 13.7524C5.05296 13.3844 3.96504 12.6255 3.19142 11.5888C2.41779 10.5522 1.99989 9.29328 2 7.99978C2 7.93404 2.01297 7.86894 2.03816 7.80821C2.06335 7.74748 2.10026 7.69232 2.1468 7.64588C2.19334 7.59943 2.24857 7.56262 2.30935 7.53756C2.37013 7.51249 2.43525 7.49965 2.501 7.49978H2.5Z" fill="white"/>
</g>
<defs>
<clipPath id="clip0_1094_36986">
<rect width="16" height="16" fill="white"/>
</clipPath>
</defs>
</svg>
