<svg width="16" height="16" viewBox="0 0 16 16" fill="none" xmlns="http://www.w3.org/2000/svg">
<g clip-path="url(#clip0_1387_34184)">
<path fill-rule="evenodd" clip-rule="evenodd" d="M2.85402 7.14592C2.80758 7.09935 2.7524 7.06241 2.69165 7.0372C2.63091 7.012 2.56579 6.99902 2.50002 6.99902C2.43425 6.99902 2.36913 7.012 2.30839 7.0372C2.24764 7.06241 2.19247 7.09935 2.14602 7.14592L0.146021 9.14592C0.0521346 9.2398 -0.000610352 9.36714 -0.000610352 9.49992C-0.000610352 9.63269 0.0521346 9.76003 0.146021 9.85392C0.239908 9.9478 0.367246 10.0005 0.500021 10.0005C0.632797 10.0005 0.760135 9.9478 0.854021 9.85392L2.50002 8.20692L4.14602 9.85392C4.23991 9.9478 4.36725 10.0005 4.50002 10.0005C4.6328 10.0005 4.76013 9.9478 4.85402 9.85392C4.94791 9.76003 5.00065 9.63269 5.00065 9.49992C5.00065 9.36714 4.94791 9.2398 4.85402 9.14592L2.85402 7.14592ZM15.854 6.14592C15.8076 6.09935 15.7524 6.06241 15.6917 6.0372C15.6309 6.012 15.5658 5.99902 15.5 5.99902C15.4343 5.99902 15.3691 6.012 15.3084 6.0372C15.2476 6.06241 15.1925 6.09935 15.146 6.14592L13.5 7.79292L11.854 6.14592C11.7601 6.05203 11.6328 5.99929 11.5 5.99929C11.3672 5.99929 11.2399 6.05203 11.146 6.14592C11.0521 6.2398 10.9994 6.36714 10.9994 6.49992C10.9994 6.63269 11.0521 6.76003 11.146 6.85392L13.146 8.85392C13.1925 8.90048 13.2476 8.93742 13.3084 8.96263C13.3691 8.98784 13.4343 9.00081 13.5 9.00081C13.5658 9.00081 13.6309 8.98784 13.6917 8.96263C13.7524 8.93742 13.8076 8.90048 13.854 8.85392L15.854 6.85392C15.9006 6.80747 15.9375 6.7523 15.9627 6.69155C15.9879 6.63081 16.0009 6.56568 16.0009 6.49992C16.0009 6.43415 15.9879 6.36903 15.9627 6.30828C15.9375 6.24754 15.9006 6.19236 15.854 6.14592Z" fill="#4AC5FF"/>
<path fill-rule="evenodd" clip-rule="evenodd" d="M8 2.99954C7.16716 2.9989 6.34738 3.20652 5.61524 3.6035C4.88311 4.00048 4.26185 4.57423 3.808 5.27254C3.73338 5.37834 3.62063 5.45107 3.49347 5.47543C3.36631 5.49978 3.23466 5.47386 3.12623 5.40313C3.01779 5.33239 2.94102 5.22235 2.91207 5.09616C2.88312 4.96997 2.90424 4.83747 2.971 4.72654C3.67649 3.64237 4.71346 2.81523 5.92732 2.36839C7.14119 1.92156 8.46695 1.87897 9.707 2.24697C10.947 2.61497 12.035 3.37385 12.8086 4.4105C13.5822 5.44714 14.0001 6.70604 14 7.99954C14 8.13228 13.9473 8.25958 13.8534 8.35345C13.7595 8.44731 13.6322 8.50004 13.4995 8.50004C13.3668 8.50004 13.2395 8.44731 13.1456 8.35345C13.0517 8.25958 12.999 8.13228 12.999 7.99954C12.999 6.67346 12.4722 5.40169 11.5345 4.464C10.5969 3.52632 9.32508 2.99954 7.999 2.99954H8ZM2.5 7.49954C2.63261 7.49954 2.75979 7.55222 2.85355 7.64599C2.94732 7.73975 3 7.86693 3 7.99954C2.99963 9.07775 3.3478 10.1272 3.99259 10.9914C4.63737 11.8555 5.54423 12.4881 6.57791 12.7948C7.61158 13.1014 8.7167 13.0657 9.72843 12.693C10.7402 12.3203 11.6043 11.6305 12.192 10.7265C12.2266 10.669 12.2725 10.619 12.3269 10.5795C12.3813 10.5401 12.4431 10.512 12.5086 10.497C12.5741 10.482 12.6419 10.4803 12.7081 10.4921C12.7742 10.5039 12.8373 10.5289 12.8936 10.5656C12.9499 10.6023 12.9982 10.65 13.0356 10.7057C13.073 10.7615 13.0988 10.8243 13.1115 10.8903C13.1241 10.9563 13.1233 11.0241 13.1092 11.0898C13.095 11.1555 13.0677 11.2176 13.029 11.2725C12.3235 12.3567 11.2865 13.1839 10.0727 13.6307C8.85881 14.0775 7.53305 14.1201 6.293 13.7521C5.05296 13.3841 3.96504 12.6252 3.19142 11.5886C2.41779 10.5519 1.99989 9.29304 2 7.99954C2 7.93379 2.01297 7.86869 2.03816 7.80797C2.06335 7.74724 2.10026 7.69207 2.1468 7.64563C2.19334 7.59919 2.24857 7.56238 2.30935 7.53731C2.37013 7.51224 2.43525 7.49941 2.501 7.49954H2.5Z" fill="#4AC5FF"/>
</g>
<defs>
<clipPath id="clip0_1387_34184">
<rect width="16" height="16" fill="white"/>
</clipPath>
</defs>
</svg>
