<svg width="24" height="24" viewBox="0 0 24 24" fill="none" xmlns="http://www.w3.org/2000/svg">
<path fill-rule="evenodd" clip-rule="evenodd" d="M8.16457 2.9865C6.79279 3.35528 5.42991 3.75639 4.07707 4.1895C3.95464 4.22729 3.84536 4.29886 3.76178 4.39597C3.67819 4.49308 3.6237 4.61181 3.60457 4.7385C2.80507 10.584 4.65007 14.85 6.85057 17.6595C7.95457 19.0695 9.15007 20.1135 10.1461 20.799C10.6456 21.141 11.0851 21.39 11.4316 21.549C11.6056 21.6285 11.7466 21.6825 11.8546 21.714C11.9022 21.7293 11.9508 21.7413 12.0001 21.75C12.0106 21.7485 12.0571 21.7425 12.1456 21.7155C12.2536 21.6825 12.3946 21.6285 12.5686 21.549C12.9136 21.39 13.3561 21.141 13.8541 20.799C15.103 19.9227 16.2138 18.8645 17.1496 17.6595C19.3501 14.85 21.1951 10.584 20.3956 4.7385C20.3764 4.61181 20.3219 4.49308 20.2384 4.39597C20.1548 4.29886 20.0455 4.22729 19.9231 4.1895C18.9841 3.8895 17.4001 3.4005 15.8356 2.9865C14.2366 2.565 12.7651 2.25 12.0001 2.25C11.2351 2.25 9.76507 2.565 8.16457 2.9865ZM7.78057 1.5375C9.34507 1.1235 11.0056 0.75 12.0001 0.75C12.9931 0.75 14.6551 1.1235 16.2196 1.5375C17.615 1.91216 19.0014 2.31978 20.3776 2.76C21.1696 3.012 21.7666 3.6945 21.8821 4.536C22.7416 10.8315 20.7481 15.4965 18.3316 18.5835C17.3018 19.9083 16.0792 21.0712 14.7046 22.0335C14.2266 22.3683 13.7213 22.6623 13.1941 22.9125C12.7891 23.0985 12.3571 23.25 12.0001 23.25C11.6431 23.25 11.2111 23.0985 10.8061 22.9125C10.2787 22.6626 9.77342 22.3685 9.29557 22.0335C7.92148 21.0711 6.69941 19.9082 5.67007 18.5835C3.25057 15.4965 1.25857 10.8315 2.11807 4.536C2.17554 4.12811 2.34734 3.74483 2.6136 3.43052C2.87985 3.11622 3.22967 2.88374 3.62257 2.76C4.99874 2.31979 6.38513 1.91217 7.78057 1.5375Z" fill="white"/>
<path d="M12 3.375C13.3635 3.375 16.782 4.4025 18.381 4.908C18.6387 4.98701 18.8683 5.13822 19.0427 5.34372C19.2171 5.54922 19.329 5.8004 19.365 6.0675C20.586 15.7035 13.17 20.2455 12 20.2455V3.375Z" fill="white"/>
</svg>
