<svg width="20" height="20" viewBox="0 0 20 20" fill="none" xmlns="http://www.w3.org/2000/svg">
<g clip-path="url(#clip0_847_1422)">
<path fill-rule="evenodd" clip-rule="evenodd" d="M14.0638 0.0851554C14.1861 0.156078 14.2808 0.266393 14.3323 0.398077C14.3838 0.529762 14.3892 0.675032 14.3475 0.810156L12.0963 8.12516H16.25C16.3721 8.12511 16.4915 8.16081 16.5935 8.22784C16.6955 8.29488 16.7757 8.39033 16.824 8.5024C16.8724 8.61446 16.887 8.73825 16.8658 8.85847C16.8446 8.97869 16.7887 9.09009 16.705 9.17891L6.70501 19.8039C6.60825 19.9068 6.47949 19.9739 6.33972 19.9942C6.19995 20.0146 6.05742 19.987 5.93534 19.9159C5.81327 19.8449 5.71886 19.7346 5.66749 19.603C5.61613 19.4715 5.61085 19.3264 5.65251 19.1914L7.90376 11.8752H3.75001C3.62794 11.8752 3.50853 11.8395 3.40651 11.7725C3.3045 11.7054 3.22435 11.61 3.17596 11.4979C3.12757 11.3858 3.11306 11.2621 3.13421 11.1418C3.15537 11.0216 3.21127 10.9102 3.29501 10.8214L13.295 0.196405C13.3916 0.0936543 13.5202 0.0266162 13.6598 0.00619113C13.7993 -0.0142339 13.9417 0.0131553 14.0638 0.0839054V0.0851554ZM5.19626 10.6252H8.75C8.84782 10.6251 8.94426 10.6481 9.03159 10.6921C9.11892 10.7362 9.1947 10.8001 9.25282 10.8788C9.31094 10.9574 9.34978 11.0487 9.36623 11.1451C9.38267 11.2415 9.37626 11.3404 9.34751 11.4339L7.63751 16.9877L14.8025 9.37516H11.25C11.1522 9.37518 11.0557 9.35224 10.9684 9.30819C10.8811 9.26414 10.8053 9.20021 10.7472 9.12154C10.6891 9.04287 10.6502 8.95166 10.6338 8.85524C10.6173 8.75883 10.6237 8.65989 10.6525 8.56641L12.3625 3.01266L5.19626 10.6252Z" fill="white" fill-opacity="0.85"/>
</g>
<defs>
<clipPath id="clip0_847_1422">
<rect width="20" height="20" fill="white"/>
</clipPath>
</defs>
</svg>
