<svg width="94" height="92" viewBox="0 0 94 92" fill="none" xmlns="http://www.w3.org/2000/svg">
<path d="M43.6668 33.9887V17.7396C47.4668 16.7648 50.2837 13.3118 50.2837 9.20611C50.2837 4.34872 46.335 0.400024 41.4776 0.400024C36.6202 0.400024 32.6715 4.34872 32.6715 9.20611C32.6715 13.3118 35.4885 16.7648 39.2885 17.7396V33.9887C34.6789 34.6826 30.7633 37.5326 28.6072 41.4648L18.9667 33.9722C19.2063 33.3113 19.3302 32.5926 19.3302 31.8492C19.3302 28.3465 16.4802 25.4965 12.9776 25.4965C9.475 25.4965 6.625 28.3465 6.625 31.8492C6.625 35.3518 9.475 38.2018 12.9776 38.2018C14.1341 38.2018 15.2246 37.8879 16.1663 37.3426L27.0624 45.81C26.8972 46.6774 26.8146 47.5696 26.8146 48.4865C26.8146 51.7413 27.8802 54.7483 29.6811 57.1852L17.3559 69.5187C16.505 70.3779 16.505 71.7657 17.3559 72.6165C17.7854 73.0461 18.3472 73.2609 18.9089 73.2609C19.4707 73.2609 20.0324 73.0461 20.462 72.6165L32.7872 60.2996C34.6624 61.6874 36.8846 62.6374 39.2967 63.0009V79.2831C36.8681 80.1752 35.1333 82.5131 35.1333 85.2474C35.1333 88.75 37.9833 91.6 41.4859 91.6C44.9885 91.6 47.8385 88.75 47.8385 85.2474C47.8385 82.5131 46.1037 80.1752 43.675 79.2831V63.0009C50.7298 61.9435 56.1489 55.8387 56.1489 48.4948C56.1489 41.1509 50.7215 35.0544 43.6668 33.9887ZM12.9693 33.8235C11.8789 33.8235 10.995 32.9396 10.995 31.8492C10.995 30.767 11.8789 29.8748 12.9693 29.8748C14.0598 29.8748 14.9437 30.7587 14.9437 31.8492C14.9437 32.9396 14.0598 33.8235 12.9693 33.8235ZM37.0498 9.20611C37.0498 6.76916 39.0324 4.77829 41.4776 4.77829C43.9228 4.77829 45.9054 6.76089 45.9054 9.20611C45.9054 11.6513 43.9228 13.6339 41.4776 13.6339C39.0324 13.6339 37.0498 11.6513 37.0498 9.20611ZM41.4776 87.2135C40.3872 87.2135 39.5033 86.3296 39.5033 85.2392C39.5033 84.2892 40.1807 83.4879 41.0811 83.3061C41.2133 83.3309 41.3372 83.3474 41.4776 83.3474C41.6098 83.3474 41.742 83.3309 41.8741 83.3061C42.7746 83.4879 43.452 84.2892 43.452 85.2392C43.4437 86.3296 42.5598 87.2135 41.4776 87.2135ZM41.4776 58.7796C35.8024 58.7796 31.1928 54.1618 31.1928 48.4948C31.1928 47.4952 31.3415 46.5287 31.6059 45.6118C31.6224 45.5622 31.6307 45.5209 31.6472 45.4713C32.9359 41.2665 36.8598 38.21 41.4776 38.21C47.1528 38.21 51.7624 42.8279 51.7624 48.4948C51.7624 54.17 47.1446 58.7796 41.4776 58.7796Z" fill="white"/>
<path d="M84.8556 27.2067C79.9982 27.2067 76.0413 31.1554 76.0413 36.021C76.0413 36.2441 76.0495 36.4671 76.066 36.6901L60.2217 42.0927C59.0734 42.481 58.4621 43.7284 58.8587 44.8767C59.1726 45.7854 60.0234 46.3636 60.9321 46.3636C61.1634 46.3636 61.403 46.3306 61.6426 46.248L77.4952 40.8454C79.073 43.241 81.7826 44.8354 84.8639 44.8354C89.7213 44.8354 93.67 40.8867 93.67 36.0293C93.67 31.1554 89.713 27.2067 84.8556 27.2067ZM84.8556 40.4406C82.4104 40.4406 80.4278 38.458 80.4278 36.0127C80.4278 33.5675 82.4104 31.5849 84.8556 31.5849C87.2926 31.5849 89.2834 33.5675 89.2834 36.0127C89.2834 38.458 87.3008 40.4406 84.8556 40.4406Z" fill="white"/>
<path d="M8.80609 72.3524C3.9487 72.3524 0 76.3011 0 81.1585C0 86.0159 3.9487 89.9646 8.80609 89.9646C13.6635 89.9646 17.6122 86.0159 17.6122 81.1585C17.6204 76.3011 13.6717 72.3524 8.80609 72.3524ZM8.80609 85.5863C6.36913 85.5863 4.37826 83.6037 4.37826 81.1585C4.37826 78.7133 6.36087 76.7307 8.80609 76.7307C11.2513 76.7307 13.2339 78.7133 13.2339 81.1585C13.2339 83.6037 11.2513 85.5863 8.80609 85.5863Z" fill="white"/>
</svg>
