<svg width="96" height="96" viewBox="0 0 96 96" fill="none" xmlns="http://www.w3.org/2000/svg">
<path d="M54.0213 50.5471C54.3695 50.7738 54.7663 50.8872 55.1792 50.8872C55.5355 50.8872 55.8999 50.79 56.2319 50.6119L59.9728 48.4823L62.4019 47.0977L62.4262 47.0815C63.1631 47.3244 63.908 47.5188 64.6367 47.6645C65.4627 47.8426 66.2886 47.9722 67.0821 48.0451C67.8513 48.1341 68.6611 48.1746 69.4951 48.1746C81.2846 48.1746 90.8717 39.4135 90.8717 28.6442C90.8717 17.8749 81.2846 9.11375 69.4951 9.11375C63.2359 9.11375 57.3007 11.6239 53.2197 15.9964C53.2116 16.0045 53.1954 16.0207 53.1873 16.0369C52.1671 15.5267 51.1063 15.0814 49.997 14.7089L49.7946 14.6441V10.1583C49.7946 5.71292 46.0294 2.11777 41.5031 2.41736C37.3816 2.68457 34.2723 6.29592 34.2723 10.4255V14.6441L34.0536 14.7089C23.8269 18.1502 16.9604 27.6968 16.9604 38.4742V55.8994C16.9604 58.8629 15.8673 61.6969 13.8916 63.8994C11.1224 66.9763 9.6001 70.952 9.6001 75.0897V78.9359C9.6001 81.0897 11.3572 82.8468 13.5191 82.8468H31.3978V83.1464C31.4949 88.9116 36.2561 93.5999 42.0213 93.5999C47.7865 93.5999 52.5557 88.9116 52.6448 83.1464L52.6529 82.8468H70.5234C72.6854 82.8468 74.4425 81.0897 74.4425 78.9359V75.0897C74.4425 70.952 72.9202 66.9763 70.1509 63.8994C68.1752 61.6969 67.0902 58.8629 67.0902 55.8994V54.4176C67.0902 53.0977 66.0214 52.0289 64.7015 52.0289C63.3817 52.0289 62.3128 53.0977 62.3128 54.4176V55.8994C62.3128 59.9075 63.7542 63.786 66.3695 66.8225L66.8068 67.3245H17.2358L17.6649 66.8225C20.2884 63.786 21.7297 59.9075 21.7297 55.8994V38.9195C21.7297 28.126 29.9807 18.879 40.7581 18.2231C44.1832 18.0126 47.4464 18.6684 50.3533 19.9721C50.1913 20.2636 50.0294 20.5794 49.8351 20.9761C48.6934 23.4053 48.1185 25.9883 48.1185 28.6442C48.1185 33.5268 50.1023 38.1989 53.6974 41.8021L53.0578 48.5552C52.9768 49.3487 53.3493 50.1099 54.0213 50.5471ZM47.8755 83.1626C47.7784 86.3448 45.2035 88.8307 42.0213 88.8307C40.4342 88.8307 38.9929 88.2072 37.9403 87.1869C36.8877 86.1667 36.2237 84.7578 36.167 83.1626L36.1589 82.8468H47.8836L47.8755 83.1626ZM69.2926 72.0938L69.3493 72.3286C69.5679 73.2274 69.6732 74.1585 69.6732 75.0897V78.0776H14.3693V75.0897C14.3693 74.1585 14.4827 73.2274 14.6932 72.3286L14.7499 72.0938H69.2926ZM45.0172 13.5834L44.6772 13.551C42.9201 13.3648 41.1306 13.3648 39.3654 13.551L39.0334 13.5834V10.1583C39.0334 8.51455 40.3694 7.17042 42.0213 7.17042C43.6731 7.17042 45.0172 8.51455 45.0172 10.1583V13.5834ZM52.3695 28.6442C52.3695 26.879 52.7096 25.1543 53.3735 23.5025C53.5517 23.0571 53.7703 22.5794 54.0294 22.0936C54.5314 21.1543 55.1549 20.2555 55.8675 19.4134C56.1995 19.0166 56.5315 18.6684 56.8877 18.3365C60.1347 15.1866 64.7258 13.381 69.4951 13.381C78.9364 13.381 86.6125 20.2312 86.6125 28.6523C86.6125 37.0734 78.9364 43.9236 69.4951 43.9236C68.6934 43.9236 67.8918 43.875 67.1145 43.7778C66.2805 43.6726 65.4708 43.5187 64.7096 43.3163C64.3129 43.211 63.9242 43.0896 63.6003 42.9843C63.5841 42.9762 63.5679 42.9762 63.5517 42.9762C63.1388 42.8386 62.7339 42.7738 62.329 42.7738C61.9404 42.7738 61.5517 42.8305 61.1711 42.9519C61.0254 43.0086 60.8877 43.0572 60.7582 43.1382L59.8189 43.6726L57.6893 44.8872L57.9728 41.8669C57.9808 41.8021 57.9808 41.7374 57.9808 41.6645C57.9808 40.6442 57.5598 39.6402 56.831 38.9195C53.9565 36.0855 52.3695 32.4418 52.3695 28.6442Z" fill="white"/>
<path d="M60.0781 31.6159C61.317 31.6159 62.313 30.6118 62.313 29.3811C62.313 28.1422 61.3089 27.1462 60.0781 27.1462C58.8474 27.1462 57.8433 28.1503 57.8433 29.3811C57.8352 30.6199 58.8393 31.6159 60.0781 31.6159Z" fill="white"/>
<path d="M69.6733 31.6159C70.9122 31.6159 71.9081 30.6118 71.9081 29.3811C71.9081 28.1422 70.9041 27.1462 69.6733 27.1462C68.4425 27.1462 67.4385 28.1503 67.4385 29.3811C67.4385 30.6199 68.4344 31.6159 69.6733 31.6159Z" fill="white"/>
<path d="M79.2685 31.6159C80.5074 31.6159 81.5033 30.6118 81.5033 29.3811C81.5033 28.1422 80.4993 27.1462 79.2685 27.1462C78.0377 27.1462 77.0337 28.1503 77.0337 29.3811C77.0337 30.6199 78.0296 31.6159 79.2685 31.6159Z" fill="white"/>
</svg>
