<svg width="44" height="44" viewBox="0 0 44 44" fill="none" xmlns="http://www.w3.org/2000/svg">
<path d="M6.7 13.4C10.4003 13.4 13.4 10.4003 13.4 6.7C13.4 2.99969 10.4003 0 6.7 0C2.99969 0 0 2.99969 0 6.7C0 10.4003 2.99969 13.4 6.7 13.4Z" fill="url(#paint0_linear_0_1)"/>
<path d="M36.45 43.15C40.1503 43.15 43.15 40.1503 43.15 36.45C43.15 32.7497 40.1503 29.75 36.45 29.75C32.7497 29.75 29.75 32.7497 29.75 36.45C29.75 40.1503 32.7497 43.15 36.45 43.15Z" fill="url(#paint1_linear_0_1)"/>
<path d="M41.7001 10.86C43.7901 8.23002 43.6201 4.40002 41.1901 1.96002C38.8501 -0.379979 35.2201 -0.619979 32.6101 1.22002C32.4801 1.26002 32.3601 1.32002 32.2501 1.43002C32.1101 1.57002 31.9901 1.70002 31.8601 1.84002C31.8101 1.89002 31.7601 1.93002 31.7101 1.97002C31.4801 2.20002 31.2701 2.45002 31.0801 2.71002C26.8201 7.79002 27.6101 12.42 19.9501 20.08C11.4101 28.62 7.46012 26.87 2.78012 30.9C2.55012 31.1 2.35012 31.31 2.17012 31.53C2.10012 31.59 2.03012 31.65 1.96012 31.72C-0.659883 34.34 -0.659883 38.58 1.96012 41.19C4.58012 43.81 8.82012 43.81 11.4301 41.19C11.5601 41.06 11.6901 40.91 11.8101 40.77C11.9601 40.64 12.1001 40.52 12.2501 40.37C16.2601 36.36 14.4901 30.07 22.2201 22.34C31.7701 12.79 35.1401 16.04 40.1201 12.3C40.5001 12.05 40.8501 11.76 41.1901 11.43C41.2401 11.38 41.2901 11.32 41.3401 11.26C41.4701 11.14 41.6001 11.02 41.7301 10.89C41.7201 10.9 41.7101 10.88 41.7001 10.86Z" fill="url(#paint2_linear_0_1)"/>
<defs>
<linearGradient id="paint0_linear_0_1" x1="6.6998" y1="36.2608" x2="6.6998" y2="2.7768" gradientUnits="userSpaceOnUse">
<stop stop-color="#F49D00"/>
<stop offset="0.5032" stop-color="#E94961"/>
<stop offset="0.9963" stop-color="#AF4F99"/>
</linearGradient>
<linearGradient id="paint1_linear_0_1" x1="36.4484" y1="43.3751" x2="36.4484" y2="9.8911" gradientUnits="userSpaceOnUse">
<stop stop-color="#F49D00"/>
<stop offset="0.5032" stop-color="#E94961"/>
<stop offset="0.9963" stop-color="#AF4F99"/>
</linearGradient>
<linearGradient id="paint2_linear_0_1" x1="21.5732" y1="44.0745" x2="21.5732" y2="1.20772" gradientUnits="userSpaceOnUse">
<stop stop-color="#F49D00"/>
<stop offset="0.5032" stop-color="#E94961"/>
<stop offset="0.9963" stop-color="#AF4F99"/>
</linearGradient>
</defs>
</svg>
