<svg width="196" height="65" viewBox="0 0 196 65" fill="none" xmlns="http://www.w3.org/2000/svg">
<path d="M33.7518 50.56C33.7518 54.8694 32.1518 58.2614 28.9518 60.7361C25.7945 63.1681 21.7625 64.3841 16.8558 64.3841C9.73049 64.3841 4.18382 62.3787 0.21582 58.3681L5.97582 52.608C8.53582 55.1681 12.2052 56.4481 16.9838 56.4481C22.3598 56.4481 25.0478 54.5707 25.0478 50.816C25.0478 49.1094 24.5998 47.8507 23.7038 47.04C22.8078 46.1867 21.4425 45.632 19.6078 45.376L14.1038 44.608C6.03982 43.4987 2.00782 39.2533 2.00782 31.872C2.00782 27.7333 3.43716 24.4053 6.29582 21.888C9.15449 19.328 13.0158 18.048 17.8798 18.048C24.0238 18.048 28.9305 19.8186 32.5998 23.36L26.9678 28.928C24.7918 26.8373 21.6772 25.792 17.6238 25.792C15.3625 25.792 13.6132 26.3467 12.3758 27.456C11.1812 28.5227 10.5838 29.888 10.5838 31.552C10.5838 32.8747 11.0532 33.984 11.9918 34.88C12.9732 35.776 14.3598 36.352 16.1518 36.608L21.5278 37.376C25.4105 37.9307 28.3118 39.104 30.2318 40.896C32.5785 43.1147 33.7518 46.336 33.7518 50.56Z" fill="url(#paint0_linear_240_5391)"/>
<path d="M71.4363 26.368H59.5323V64.0001H50.6363V26.368H38.7323V18.432H71.4363V26.368Z" fill="url(#paint1_linear_240_5391)"/>
<path d="M108.703 64.0001H78.6868V18.432H108.703V26.368H87.5828V37.056H105.567V44.992H87.5828V56.0641H108.703V64.0001Z" fill="url(#paint2_linear_240_5391)"/>
<path d="M150.141 32.64C150.141 36.6507 148.818 39.9787 146.173 42.624C143.357 45.44 139.666 46.848 135.101 46.848H126.333V64.0001H117.437V18.432H135.101C139.666 18.432 143.357 19.84 146.173 22.656C148.818 25.3013 150.141 28.6293 150.141 32.64ZM141.245 32.64C141.245 30.7627 140.648 29.248 139.453 28.096C138.258 26.944 136.658 26.368 134.653 26.368H126.333V38.848H134.653C136.658 38.848 138.258 38.2933 139.453 37.184C140.648 36.032 141.245 34.5173 141.245 32.64Z" fill="url(#paint3_linear_240_5391)"/>
<path d="M195.872 45.872C195.872 51.856 193.907 56.5201 189.976 59.8641C186.339 62.9734 181.675 64.5281 175.984 64.5281C170.411 64.5281 165.835 63.0907 162.256 60.2161C158.15 56.9307 156.067 52.208 156.008 46.048H167.448C167.507 48.7467 168.387 50.8 170.088 52.208C171.614 53.5574 173.579 54.2321 175.984 54.2321C178.507 54.2321 180.531 53.4694 182.056 51.944C183.64 50.4187 184.432 48.2774 184.432 45.52C184.432 42.88 183.64 40.7973 182.056 39.272C180.531 37.688 178.39 36.896 175.632 36.896H173.96V26.952H175.632C180.912 26.952 183.552 24.3413 183.552 19.12C183.552 16.5973 182.819 14.632 181.352 13.224C179.886 11.8159 178.067 11.1119 175.896 11.1119C173.726 11.1119 171.907 11.7866 170.44 13.136C169.032 14.4853 168.27 16.3333 168.152 18.68H156.712C156.83 13.224 158.707 8.88261 162.344 5.65593C165.982 2.42926 170.499 0.815918 175.896 0.815918C181.47 0.815918 186.046 2.48792 189.624 5.83193C193.203 9.17594 194.992 13.488 194.992 18.768C194.992 24.752 192.587 29.0347 187.776 31.616C193.174 34.4907 195.872 39.2427 195.872 45.872Z" fill="url(#paint4_linear_240_5391)"/>
<defs>
<linearGradient id="paint0_linear_240_5391" x1="0.21582" y1="0.815918" x2="37.7313" y2="116.024" gradientUnits="userSpaceOnUse">
<stop stop-color="#0048FF"/>
<stop offset="1" stop-color="#14FFCA"/>
</linearGradient>
<linearGradient id="paint1_linear_240_5391" x1="0.21582" y1="0.815918" x2="37.7313" y2="116.024" gradientUnits="userSpaceOnUse">
<stop stop-color="#0048FF"/>
<stop offset="1" stop-color="#14FFCA"/>
</linearGradient>
<linearGradient id="paint2_linear_240_5391" x1="0.21582" y1="0.815918" x2="37.7313" y2="116.024" gradientUnits="userSpaceOnUse">
<stop stop-color="#0048FF"/>
<stop offset="1" stop-color="#14FFCA"/>
</linearGradient>
<linearGradient id="paint3_linear_240_5391" x1="0.21582" y1="0.815918" x2="37.7313" y2="116.024" gradientUnits="userSpaceOnUse">
<stop stop-color="#0048FF"/>
<stop offset="1" stop-color="#14FFCA"/>
</linearGradient>
<linearGradient id="paint4_linear_240_5391" x1="0.21582" y1="0.815918" x2="37.7313" y2="116.024" gradientUnits="userSpaceOnUse">
<stop stop-color="#0048FF"/>
<stop offset="1" stop-color="#14FFCA"/>
</linearGradient>
</defs>
</svg>
