<svg width="196" height="65" viewBox="0 0 196 65" fill="none" xmlns="http://www.w3.org/2000/svg">
<path d="M33.7518 50.56C33.7518 54.8693 32.1518 58.2614 28.9518 60.736C25.7945 63.168 21.7625 64.384 16.8558 64.384C9.73049 64.384 4.18382 62.3787 0.21582 58.368L5.97582 52.608C8.53582 55.168 12.2052 56.448 16.9838 56.448C22.3598 56.448 25.0478 54.5707 25.0478 50.816C25.0478 49.1093 24.5998 47.8507 23.7038 47.04C22.8078 46.1867 21.4425 45.632 19.6078 45.376L14.1038 44.608C6.03982 43.4987 2.00782 39.2533 2.00782 31.872C2.00782 27.7333 3.43715 24.4053 6.29582 21.888C9.15449 19.328 13.0158 18.0479 17.8798 18.0479C24.0238 18.0479 28.9305 19.8186 32.5998 23.36L26.9678 28.928C24.7918 26.8373 21.6772 25.792 17.6238 25.792C15.3625 25.792 13.6132 26.3466 12.3758 27.456C11.1812 28.5226 10.5838 29.888 10.5838 31.552C10.5838 32.8746 11.0532 33.984 11.9918 34.88C12.9732 35.776 14.3598 36.352 16.1518 36.608L21.5278 37.376C25.4105 37.9307 28.3118 39.104 30.2318 40.896C32.5785 43.1147 33.7518 46.336 33.7518 50.56Z" fill="url(#paint0_linear_240_5388)"/>
<path d="M71.4363 26.368H59.5323V64H50.6363V26.368H38.7323V18.432H71.4363V26.368Z" fill="url(#paint1_linear_240_5388)"/>
<path d="M108.703 64H78.6868V18.432H108.703V26.368H87.5828V37.056H105.567V44.992H87.5828V56.064H108.703V64Z" fill="url(#paint2_linear_240_5388)"/>
<path d="M150.141 32.64C150.141 36.6507 148.818 39.9787 146.173 42.624C143.357 45.44 139.666 46.848 135.101 46.848H126.333V64H117.437V18.432H135.101C139.666 18.432 143.357 19.84 146.173 22.656C148.818 25.3013 150.141 28.6293 150.141 32.64ZM141.245 32.64C141.245 30.7626 140.648 29.248 139.453 28.096C138.258 26.944 136.658 26.368 134.653 26.368H126.333V38.848H134.653C136.658 38.848 138.258 38.2933 139.453 37.184C140.648 36.032 141.245 34.5173 141.245 32.64Z" fill="url(#paint3_linear_240_5388)"/>
<path d="M195.608 64H157.504V53.704L180.912 26.512C183.083 23.9893 184.168 21.4666 184.168 18.944C184.168 16.5973 183.494 14.7199 182.144 13.3119C180.854 11.8453 179.006 11.1119 176.6 11.1119C171.496 11.1119 168.944 13.7813 168.944 19.1199H157.504C157.504 13.5466 159.352 9.0586 163.048 5.65593C166.568 2.42926 171.086 0.815918 176.6 0.815918C182.232 0.815918 186.808 2.45859 190.328 5.74393C193.848 9.02927 195.608 13.4586 195.608 19.032C195.608 21.848 195.022 24.3706 193.848 26.6C193.027 28.3013 191.384 30.56 188.92 33.376L171.408 53.704H195.608V64Z" fill="url(#paint4_linear_240_5388)"/>
<defs>
<linearGradient id="paint0_linear_240_5388" x1="0.21582" y1="0.815918" x2="37.6189" y2="115.784" gradientUnits="userSpaceOnUse">
<stop stop-color="#0048FF"/>
<stop offset="1" stop-color="#14FFCA"/>
</linearGradient>
<linearGradient id="paint1_linear_240_5388" x1="0.21582" y1="0.815918" x2="37.6189" y2="115.784" gradientUnits="userSpaceOnUse">
<stop stop-color="#0048FF"/>
<stop offset="1" stop-color="#14FFCA"/>
</linearGradient>
<linearGradient id="paint2_linear_240_5388" x1="0.21582" y1="0.815918" x2="37.6189" y2="115.784" gradientUnits="userSpaceOnUse">
<stop stop-color="#0048FF"/>
<stop offset="1" stop-color="#14FFCA"/>
</linearGradient>
<linearGradient id="paint3_linear_240_5388" x1="0.21582" y1="0.815918" x2="37.6189" y2="115.784" gradientUnits="userSpaceOnUse">
<stop stop-color="#0048FF"/>
<stop offset="1" stop-color="#14FFCA"/>
</linearGradient>
<linearGradient id="paint4_linear_240_5388" x1="0.21582" y1="0.815918" x2="37.6189" y2="115.784" gradientUnits="userSpaceOnUse">
<stop stop-color="#0048FF"/>
<stop offset="1" stop-color="#14FFCA"/>
</linearGradient>
</defs>
</svg>
