<svg width="186" height="64" viewBox="0 0 186 64" fill="none" xmlns="http://www.w3.org/2000/svg">
<path d="M33.7518 49.56C33.7518 53.8693 32.1518 57.2613 28.9518 59.736C25.7945 62.168 21.7625 63.384 16.8558 63.384C9.73049 63.384 4.18382 61.3787 0.21582 57.368L5.97582 51.608C8.53582 54.168 12.2052 55.448 16.9838 55.448C22.3598 55.448 25.0478 53.5707 25.0478 49.816C25.0478 48.1093 24.5998 46.8507 23.7038 46.04C22.8078 45.1867 21.4425 44.632 19.6078 44.376L14.1038 43.608C6.03982 42.4987 2.00782 38.2533 2.00782 30.872C2.00782 26.7333 3.43715 23.4053 6.29582 20.888C9.15449 18.328 13.0158 17.048 17.8798 17.048C24.0238 17.048 28.9305 18.8187 32.5998 22.36L26.9678 27.928C24.7918 25.8373 21.6772 24.792 17.6238 24.792C15.3625 24.792 13.6132 25.3467 12.3758 26.456C11.1812 27.5227 10.5838 28.888 10.5838 30.552C10.5838 31.8747 11.0532 32.984 11.9918 33.88C12.9732 34.776 14.3598 35.352 16.1518 35.608L21.5278 36.376C25.4105 36.9307 28.3118 38.104 30.2318 39.896C32.5785 42.1147 33.7518 45.336 33.7518 49.56Z" fill="url(#paint0_linear_240_5385)"/>
<path d="M71.4363 25.368H59.5323V63H50.6363V25.368H38.7323V17.432H71.4363V25.368Z" fill="url(#paint1_linear_240_5385)"/>
<path d="M108.703 63H78.6868V17.432H108.703V25.368H87.5828V36.056H105.567V43.992H87.5828V55.064H108.703V63Z" fill="url(#paint2_linear_240_5385)"/>
<path d="M150.141 31.64C150.141 35.6507 148.818 38.9787 146.173 41.624C143.357 44.44 139.666 45.848 135.101 45.848H126.333V63H117.437V17.432H135.101C139.666 17.432 143.357 18.84 146.173 21.656C148.818 24.3013 150.141 27.6293 150.141 31.64ZM141.245 31.64C141.245 29.7627 140.647 28.248 139.453 27.096C138.258 25.944 136.658 25.368 134.653 25.368H126.333V37.848H134.653C136.658 37.848 138.258 37.2933 139.453 36.184C140.647 35.032 141.245 33.5173 141.245 31.64Z" fill="url(#paint3_linear_240_5385)"/>
<path d="M185.576 63H174.136V12.664L161.376 23.752V11.432L174.136 0.343994H185.576V63Z" fill="url(#paint4_linear_240_5385)"/>
<defs>
<linearGradient id="paint0_linear_240_5385" x1="0.21582" y1="0.343994" x2="38.6495" y2="113.353" gradientUnits="userSpaceOnUse">
<stop stop-color="#0048FF"/>
<stop offset="1" stop-color="#14FFCA"/>
</linearGradient>
<linearGradient id="paint1_linear_240_5385" x1="0.21582" y1="0.343994" x2="38.6495" y2="113.353" gradientUnits="userSpaceOnUse">
<stop stop-color="#0048FF"/>
<stop offset="1" stop-color="#14FFCA"/>
</linearGradient>
<linearGradient id="paint2_linear_240_5385" x1="0.21582" y1="0.343994" x2="38.6495" y2="113.353" gradientUnits="userSpaceOnUse">
<stop stop-color="#0048FF"/>
<stop offset="1" stop-color="#14FFCA"/>
</linearGradient>
<linearGradient id="paint3_linear_240_5385" x1="0.21582" y1="0.343994" x2="38.6495" y2="113.353" gradientUnits="userSpaceOnUse">
<stop stop-color="#0048FF"/>
<stop offset="1" stop-color="#14FFCA"/>
</linearGradient>
<linearGradient id="paint4_linear_240_5385" x1="0.21582" y1="0.343994" x2="38.6495" y2="113.353" gradientUnits="userSpaceOnUse">
<stop stop-color="#0048FF"/>
<stop offset="1" stop-color="#14FFCA"/>
</linearGradient>
</defs>
</svg>
